  0
SECTION
  2
HEADER
  9
$ACADVER
  1
AC1009
  9
$INSBASE
 10
0.0
 20
0.0
 30
0.0
  9
$EXTMIN
 10
106.13882199999991
 20
48.499999999999993
 30
0.0
  9
$EXTMAX
 10
525.81408799999997
 20
294.0
 30
0.0
  9
$LIMMIN
 10
0.0
 20
0.0
  9
$LIMMAX
 10
12.0
 20
9.0
  9
$ORTHOMODE
 70
     0
  9
$REGENMODE
 70
     1
  9
$FILLMODE
 70
     1
  9
$QTEXTMODE
 70
     0
  9
$MIRRTEXT
 70
     1
  9
$DRAGMODE
 70
     2
  9
$LTSCALE
 40
1.0
  9
$OSMODE
 70
   423
  9
$ATTMODE
 70
     1
  9
$TEXTSIZE
 40
3.1000000000000001
  9
$TRACEWID
 40
0.05
  9
$TEXTSTYLE
  7
STANDARD
  9
$CLAYER
  8
0
  9
$CELTYPE
  6
BYLAYER
  9
$CECOLOR
 62
   256
  9
$DIMSCALE
 40
1.0
  9
$DIMASZ
 40
0.18
  9
$DIMEXO
 40
0.0625
  9
$DIMDLI
 40
0.38
  9
$DIMRND
 40
0.0
  9
$DIMDLE
 40
0.0
  9
$DIMEXE
 40
0.18
  9
$DIMTP
 40
0.0
  9
$DIMTM
 40
0.0
  9
$DIMTXT
 40
0.18
  9
$DIMCEN
 40
0.09
  9
$DIMTSZ
 40
0.0
  9
$DIMTOL
 70
     0
  9
$DIMLIM
 70
     0
  9
$DIMTIH
 70
     1
  9
$DIMTOH
 70
     1
  9
$DIMSE1
 70
     0
  9
$DIMSE2
 70
     0
  9
$DIMTAD
 70
     0
  9
$DIMZIN
 70
     0
  9
$DIMBLK
  1

  9
$DIMASO
 70
     1
  9
$DIMSHO
 70
     0
  9
$DIMPOST
  1

  9
$DIMAPOST
  1

  9
$DIMALT
 70
     0
  9
$DIMALTD
 70
     2
  9
$DIMALTF
 40
25.399999999999999
  9
$DIMLFAC
 40
1.0
  9
$DIMTOFL
 70
     0
  9
$DIMTVP
 40
0.0
  9
$DIMTIX
 70
     0
  9
$DIMSOXD
 70
     0
  9
$DIMSAH
 70
     0
  9
$DIMBLK1
  1

  9
$DIMBLK2
  1

  9
$DIMSTYLE
  2
STANDARD
  9
$DIMCLRD
 70
     0
  9
$DIMCLRE
 70
     0
  9
$DIMCLRT
 70
     0
  9
$DIMTFAC
 40
1.0
  9
$DIMGAP
 40
0.09
  9
$LUNITS
 70
     2
  9
$LUPREC
 70
     4
  9
$SKETCHINC
 40
0.1
  9
$FILLETRAD
 40
0.0
  9
$AUNITS
 70
     0
  9
$AUPREC
 70
     0
  9
$MENU
  1
acad
  9
$ELEVATION
 40
0.0
  9
$PELEVATION
 40
0.0
  9
$THICKNESS
 40
0.0
  9
$LIMCHECK
 70
     0
  9
$BLIPMODE
 70
     0
  9
$CHAMFERA
 40
0.0
  9
$CHAMFERB
 40
0.0
  9
$SKPOLY
 70
     0
  9
$TDCREATE
 40
2451089.346388889
  9
$TDUPDATE
 40
2453503.621870833
  9
$TDINDWG
 40
0.0002524653
  9
$TDUSRTIMER
 40
0.0002522801
  9
$USRTIMER
 70
     1
  9
$ANGBASE
 50
0.0
  9
$ANGDIR
 70
     0
  9
$PDMODE
 70
     0
  9
$PDSIZE
 40
0.0
  9
$PLINEWID
 40
0.0
  9
$COORDS
 70
     2
  9
$SPLFRAME
 70
     0
  9
$SPLINETYPE
 70
     6
  9
$SPLINESEGS
 70
     8
  9
$ATTDIA
 70
     0
  9
$ATTREQ
 70
     1
  9
$HANDLING
 70
 10241
  9
$HANDSEED
  5
2B4
  9
$SURFTAB1
 70
     6
  9
$SURFTAB2
 70
     6
  9
$SURFTYPE
 70
     6
  9
$SURFU
 70
     6
  9
$SURFV
 70
     6
  9
$UCSNAME
  2

  9
$UCSORG
 10
0.0
 20
0.0
 30
0.0
  9
$UCSXDIR
 10
1.0
 20
0.0
 30
0.0
  9
$UCSYDIR
 10
0.0
 20
1.0
 30
0.0
  9
$PUCSNAME
  2

  9
$PUCSORG
 10
0.0
 20
0.0
 30
0.0
  9
$PUCSXDIR
 10
1.0
 20
0.0
 30
0.0
  9
$PUCSYDIR
 10
0.0
 20
1.0
 30
0.0
  9
$USERI1
 70
     0
  9
$USERI2
 70
     0
  9
$USERI3
 70
     0
  9
$USERI4
 70
     0
  9
$USERI5
 70
     0
  9
$USERR1
 40
0.0
  9
$USERR2
 40
0.0
  9
$USERR3
 40
0.0
  9
$USERR4
 40
0.0
  9
$USERR5
 40
0.0
  9
$WORLDVIEW
 70
     1
  9
$SHADEDGE
 70
     3
  9
$SHADEDIF
 70
    70
  9
$TILEMODE
 70
     1
  9
$MAXACTVP
 70
    64
  9
$PLIMCHECK
 70
     0
  9
$PEXTMIN
 10
1.0000000000000000E+020
 20
1.0000000000000000E+020
 30
1.0000000000000000E+020
  9
$PEXTMAX
 10
-1.0000000000000000E+020
 20
-1.0000000000000000E+020
 30
-1.0000000000000000E+020
  9
$PLIMMIN
 10
0.0
 20
0.0
  9
$PLIMMAX
 10
12.0
 20
9.0
  9
$UNITMODE
 70
     0
  9
$VISRETAIN
 70
     1
  9
$PLINEGEN
 70
     0
  9
$PSLTSCALE
 70
     1
  0
ENDSEC
  0
SECTION
  2
TABLES
  0
TABLE
  2
VPORT
 70
     2
  0
VPORT
  2
*ACTIVE
 70
     0
 10
0.0
 20
0.0
 11
1.0
 21
1.0
 12
262.90704399999998
 22
164.944155293591
 13
0.0
 23
0.0
 14
1.0
 24
1.0
 15
0.0
 25
0.0
 16
0.0
 26
0.0
 36
1.0
 17
0.0
 27
0.0
 37
0.0
 40
329.88831058718199
 41
1.5939153439153431
 42
50.0
 43
0.0
 44
0.0
 50
0.0
 51
0.0
 71
     0
 72
   100
 73
     1
 74
     1
 75
     0
 76
     0
 77
     0
 78
     0
  0
ENDTAB
  0
TABLE
  2
LTYPE
 70
     3
  0
LTYPE
  2
CONTINUOUS
 70
     0
  3
Solid line (NEC CAE2D for Win R4.3 : 98.10.01)
 72
    65
 73
     0
 40
0.0
  0
LTYPE
  2
DASHED
 70
     0
  3
__ __ __ __ __ __ __ __ __ __ __ __ __ __ __
 72
    65
 73
     2
 40
4.0
 49
3.0
 49
-1.0
  0
LTYPE
  2
CENTER
 70
     0
  3
____ _ ____ _ ____ _ ____ _ ____ _ ____ _ ____
 72
    65
 73
     4
 40
13.0
 49
10.0
 49
-1.0
 49
1.0
 49
-1.0
  0
ENDTAB
  0
TABLE
  2
LAYER
 70
     9
  0
LAYER
  2
0
 70
     0
 62
     7
  6
CONTINUOUS
  0
LAYER
  2
COMMENT0
 70
     0
 62
     7
  6
CONTINUOUS
  0
LAYER
  2
COMMENT1
 70
     0
 62
     7
  6
CONTINUOUS
  0
LAYER
  2
SHOMEN0
 70
     0
 62
     7
  6
CONTINUOUS
  0
LAYER
  2
SHOMEN1
 70
     0
 62
     7
  6
CONTINUOUS
  0
LAYER
  2
HEIMEN0
 70
     0
 62
     7
  6
CONTINUOUS
  0
LAYER
  2
HEIMEN1
 70
     0
 62
     7
  6
CONTINUOUS
  0
LAYER
  2
SOKUMEN0
 70
     0
 62
     7
  6
CONTINUOUS
  0
LAYER
  2
SOKUMEN1
 70
     0
 62
     7
  6
CONTINUOUS
  0
ENDTAB
  0
TABLE
  2
STYLE
 70
     1
  0
STYLE
  2
STANDARD
 70
     0
 40
0.0
 41
1.0
 50
0.0
 71
     0
 42
3.1000000000000001
  3
TXT
  4

  0
ENDTAB
  0
TABLE
  2
VIEW
 70
     0
  0
ENDTAB
  0
TABLE
  2
UCS
 70
     0
  0
ENDTAB
  0
TABLE
  2
APPID
 70
     1
  0
APPID
  2
ACAD
 70
     0
  0
ENDTAB
  0
TABLE
  2
DIMSTYLE
 70
     1
  0
DIMSTYLE
  2
STANDARD
 70
     0
  3

  4

  5

  6

  7

 40
1.0
 41
0.18
 42
0.0625
 43
0.38
 44
0.18
 45
0.0
 46
0.0
 47
0.0
 48
0.0
140
0.18
141
0.09
142
0.0
143
25.399999999999999
144
1.0
145
0.0
146
1.0
147
0.09
 71
     0
 72
     0
 73
     1
 74
     1
 75
     0
 76
     0
 77
     0
 78
     0
170
     0
171
     2
172
     0
173
     0
174
     0
175
     0
176
     0
177
     0
178
     0
  0
ENDTAB
  0
ENDSEC
  0
SECTION
  2
BLOCKS
  0
BLOCK
  8
0
  2
$MODEL_SPACE
 70
     0
 10
0.0
 20
0.0
 30
0.0
  3
$MODEL_SPACE
  1

  0
ENDBLK
  5
20
  8
0
  0
BLOCK
 67
     1
  8
0
  2
$PAPER_SPACE
 70
     0
 10
0.0
 20
0.0
 30
0.0
  3
$PAPER_SPACE
  1

  0
ENDBLK
  5
1C
 67
     1
  8
0
  0
ENDSEC
  0
SECTION
  2
ENTITIES
  0
TEXT
  5
35
  8
COMMENT0
  6
CONTINUOUS
 10
106.13882199999991
 20
88.440256000000005
 30
0.0
 40
3.1000000000000001
  1
LWHS25...B
  0
TEXT
  5
36
  8
COMMENT0
  6
CONTINUOUS
 10
106.13882199999991
 20
83.440256000000005
 30
0.0
 40
3.1000000000000001
  1
LWHS25...SL
  0
ARC
  5
37
  8
SHOMEN1
  6
CONTINUOUS
 62
     3
 10
150.0
 20
169.5
 30
0.0
 40
4.75
 50
39.648305000000008
 51
320.35169500000001
  0
LINE
  5
38
  8
SHOMEN1
  6
CONTINUOUS
 62
     3
 10
172.59999999999991
 20
149.5
 30
0.0
 11
173.59999999999991
 21
150.5
 31
0.0
  0
LINE
  5
39
  8
SHOMEN1
  6
CONTINUOUS
 62
     3
 10
173.09999999999991
 20
150.5
 30
0.0
 11
172.09999999999999
 21
149.5
 31
0.0
  0
LINE
  5
3A
  8
SHOMEN1
  6
CONTINUOUS
 62
     3
 10
126.90000000000001
 20
150.5
 30
0.0
 11
127.90000000000001
 21
149.5
 31
0.0
  0
LINE
  5
3B
  8
SHOMEN1
  6
CONTINUOUS
 62
     3
 10
172.09999999999999
 20
175.0
 30
0.0
 11
173.09999999999991
 21
174.0
 31
0.0
  0
LINE
  5
3C
  8
SHOMEN1
  6
CONTINUOUS
 62
     3
 10
173.09999999999991
 20
174.0
 30
0.0
 11
173.09999999999991
 21
150.5
 31
0.0
  0
LINE
  5
3D
  8
SHOMEN1
  6
CONTINUOUS
 62
     3
 10
126.90000000000001
 20
174.0
 30
0.0
 11
126.90000000000001
 21
150.5
 31
0.0
  0
LINE
  5
3E
  8
SHOMEN1
  6
CONTINUOUS
 62
     3
 10
127.90000000000001
 20
175.0
 30
0.0
 11
172.09999999999999
 21
175.0
 31
0.0
  0
LINE
  5
3F
  8
SHOMEN1
  6
CONTINUOUS
 62
     3
 10
126.40000000000001
 20
150.5
 30
0.0
 11
127.40000000000001
 21
149.5
 31
0.0
  0
LINE
  5
40
  8
SHOMEN1
  6
CONTINUOUS
 62
     3
 10
145.3811959999999
 20
169.5
 30
0.0
 11
147.69059699999991
 21
165.5
 31
0.0
  0
LINE
  5
41
  8
SHOMEN1
  6
CONTINUOUS
 62
     3
 10
147.69059699999991
 20
173.5
 30
0.0
 11
145.3811959999999
 21
169.5
 31
0.0
  0
LINE
  5
42
  8
SHOMEN1
  6
CONTINUOUS
 62
     3
 10
152.3093989999999
 20
173.5
 30
0.0
 11
147.69059699999991
 21
173.5
 31
0.0
  0
LINE
  5
43
  8
SHOMEN1
  6
CONTINUOUS
 62
     3
 10
152.980932
 20
172.33686999999989
 30
0.0
 11
152.3093989999999
 21
173.5
 31
0.0
  0
LINE
  5
44
  8
SHOMEN1
  6
CONTINUOUS
 62
     3
 10
152.3093989999999
 20
165.5
 30
0.0
 11
152.98137099999991
 21
166.6638899999999
 31
0.0
  0
ARC
  5
45
  8
SHOMEN1
  6
CONTINUOUS
 62
     3
 10
149.99999800000001
 20
169.5
 30
0.0
 40
4.0
 50
42.603766999999998
 51
317.40644600000002
  0
LINE
  5
46
  8
SHOMEN1
  6
CONTINUOUS
 62
     3
 10
152.3093989999999
 20
165.5
 30
0.0
 11
147.69059699999991
 21
165.5
 31
0.0
  0
ARC
  5
47
  8
SHOMEN1
  6
CONTINUOUS
 62
     3
 10
155.66393899999991
 20
172.536102
 30
0.0
 40
0.8
 50
258.01394799999991
 51
293.74004100000002
  0
ARC
  5
48
  8
SHOMEN1
  6
CONTINUOUS
 62
     3
 10
155.664705
 20
166.463911
 30
0.0
 40
0.8
 50
66.266992000000002
 51
101.985725
  0
LINE
  5
49
  8
SHOMEN1
  6
CONTINUOUS
 62
     3
 10
154.3375979999999
 20
172.0
 30
0.0
 11
154.0875979999999
 21
172.43301299999999
 31
0.0
  0
LINE
  5
4A
  8
SHOMEN1
  6
CONTINUOUS
 62
     3
 10
152.98137099999991
 20
172.33610999999999
 30
0.0
 11
153.41438400000001
 21
172.58610999999999
 31
0.0
  0
LINE
  5
4B
  8
SHOMEN1
  6
CONTINUOUS
 62
     3
 10
154.0875979999999
 20
172.43301299999999
 30
0.0
 11
153.41438400000001
 21
172.58610999999999
 31
0.0
  0
LINE
  5
4C
  8
SHOMEN1
  6
CONTINUOUS
 62
     3
 10
154.0875979999999
 20
166.56698700000001
 30
0.0
 11
153.41438400000001
 21
166.4138899999999
 31
0.0
  0
LINE
  5
4D
  8
SHOMEN1
  6
CONTINUOUS
 62
     3
 10
153.61458599999989
 20
169.5
 30
0.0
 11
152.93346899999989
 21
169.5
 31
0.0
  0
ARC
  5
4E
  8
SHOMEN1
  6
CONTINUOUS
 62
     3
 10
162.70968599999989
 20
169.5011329999999
 30
0.0
 40
10.133609999999999
 50
183.339733
 51
196.25921199999999
  0
ARC
  5
4F
  8
SHOMEN1
  6
CONTINUOUS
 62
     3
 10
162.70968599999989
 20
169.5011329999999
 30
0.0
 40
8.7377070000000003
 50
184.357629
 51
196.63333499999999
  0
LINE
  5
50
  8
SHOMEN1
  6
CONTINUOUS
 62
     3
 10
152.93346899999989
 20
169.5
 30
0.0
 11
152.59316599999991
 21
170.0894219999999
 31
0.0
  0
LINE
  5
51
  8
SHOMEN1
  6
CONTINUOUS
 62
     3
 10
152.93346899999989
 20
169.5
 30
0.0
 11
152.59328600000001
 21
168.910786
 31
0.0
  0
LINE
  5
52
  8
SHOMEN1
  6
CONTINUOUS
 62
     3
 10
153.61458599999989
 20
169.5
 30
0.0
 11
153.9972379999999
 21
168.83722700000001
 31
0.0
  0
LINE
  5
53
  8
SHOMEN1
  6
CONTINUOUS
 62
     3
 10
153.61458599999989
 20
169.5
 30
0.0
 11
153.997039
 21
170.16242899999989
 31
0.0
  0
LINE
  5
54
  8
SHOMEN1
  6
CONTINUOUS
 62
     3
 10
152.98137099999991
 20
166.6638899999999
 30
0.0
 11
153.41438400000001
 21
166.4138899999999
 31
0.0
  0
LINE
  5
55
  8
SHOMEN1
  6
CONTINUOUS
 62
     3
 10
154.3375979999999
 20
167.0
 30
0.0
 11
154.0875979999999
 21
166.56698700000001
 31
0.0
  0
LINE
  5
56
  8
SHOMEN1
  6
CONTINUOUS
 62
     3
 10
155.49780000000001
 20
171.75354300000001
 30
0.0
 11
154.3369209999999
 21
172.0
 31
0.0
  0
LINE
  5
57
  8
SHOMEN1
  6
CONTINUOUS
 62
     3
 10
155.49857099999991
 20
167.2464699999999
 30
0.0
 11
154.3375979999999
 21
167.0
 31
0.0
  0
LINE
  5
58
  8
SHOMEN1
  6
CONTINUOUS
 62
     3
 10
157.56899799999991
 20
172.5
 30
0.0
 11
155.98600899999991
 21
171.80379600000001
 31
0.0
  0
LINE
  5
59
  8
SHOMEN1
  6
CONTINUOUS
 62
     3
 10
159.76575299999999
 20
171.61983499999999
 30
0.0
 11
157.56899799999991
 21
172.5
 31
0.0
  0
ARC
  5
5A
  8
SHOMEN1
  6
CONTINUOUS
 62
     3
 10
162.70968599999989
 20
169.5011329999999
 30
0.0
 40
10.133609999999999
 50
163.74965299999991
 51
176.67192099999991
  0
ARC
  5
5B
  8
SHOMEN1
  6
CONTINUOUS
 62
     3
 10
162.70968599999989
 20
169.5011329999999
 30
0.0
 40
8.7377070000000003
 50
163.38216800000001
 51
175.65952899999991
  0
LINE
  5
5C
  8
SHOMEN1
  6
CONTINUOUS
 62
     3
 10
157.56899799999991
 20
166.5
 30
0.0
 11
155.98600899999991
 21
167.19620399999991
 31
0.0
  0
LINE
  5
5D
  8
SHOMEN1
  6
CONTINUOUS
 62
     3
 10
159.76575299999999
 20
167.38016499999989
 30
0.0
 11
157.56899799999991
 21
166.5
 31
0.0
  0
LINE
  5
5E
  8
SHOMEN1
  6
CONTINUOUS
 62
     3
 10
138.76227899999989
 20
146.80000000000001
 30
0.0
 11
138.80000000000001
 21
146.80000000000001
 31
0.0
  0
ARC
  5
5F
  8
SHOMEN1
  6
CONTINUOUS
 62
     3
 10
171.90000000000001
 20
149.30000000000001
 30
0.0
 40
0.2
 50
0.0
 51
90.0
  0
LINE
  5
60
  8
SHOMEN1
  6
CONTINUOUS
 62
     3
 10
173.59999999999991
 20
174.5
 30
0.0
 11
173.59999999999991
 21
150.5
 31
0.0
  0
LINE
  5
61
  8
SHOMEN1
  6
DASHED
 10
153.5
 20
140.5
 30
0.0
 11
154.0
 21
140.0
 31
0.0
  0
LINE
  5
62
  8
SHOMEN1
  6
DASHED
 10
146.5
 20
140.5
 30
0.0
 11
146.0
 21
140.0
 31
0.0
  0
LINE
  5
63
  8
SHOMEN1
  6
DASHED
 10
146.5
 20
140.5
 30
0.0
 11
153.5
 21
140.5
 31
0.0
  0
LINE
  5
64
  8
SHOMEN1
  6
DASHED
 10
144.5
 20
153.0
 30
0.0
 11
155.49999999999989
 21
153.0
 31
0.0
  0
LINE
  5
65
  8
SHOMEN1
  6
CONTINUOUS
 62
     3
 10
157.80000000000001
 20
156.6999999999999
 30
0.0
 11
157.80000000000001
 21
155.30000000000001
 31
0.0
  0
LINE
  5
66
  8
SHOMEN1
  6
CONTINUOUS
 62
     3
 10
139.40000000000001
 20
162.0
 30
0.0
 11
160.52500000000001
 21
162.0
 31
0.0
  0
LINE
  5
67
  8
SHOMEN1
  6
DASHED
 10
155.49999999999989
 20
162.0
 30
0.0
 11
155.49999999999989
 21
153.0
 31
0.0
  0
LINE
  5
68
  8
SHOMEN1
  6
DASHED
 10
144.5
 20
162.0
 30
0.0
 11
144.5
 21
153.0
 31
0.0
  0
LINE
  5
69
  8
SHOMEN1
  6
DASHED
 10
153.5
 20
153.0
 30
0.0
 11
153.5
 21
140.5
 31
0.0
  0
LINE
  5
6A
  8
SHOMEN1
  6
DASHED
 10
146.5
 20
153.0
 30
0.0
 11
146.5
 21
140.5
 31
0.0
  0
LINE
  5
6B
  8
SHOMEN1
  6
CONTINUOUS
 62
     3
 10
138.5
 20
141.5
 30
0.0
 11
140.0
 21
140.0
 31
0.0
  0
LINE
  5
6C
  8
SHOMEN1
  6
CONTINUOUS
 62
     3
 10
160.0
 20
140.0
 30
0.0
 11
161.5
 21
141.5
 31
0.0
  0
LINE
  5
6D
  8
SHOMEN1
  6
CONTINUOUS
 62
     3
 10
140.0
 20
140.0
 30
0.0
 11
160.0
 21
140.0
 31
0.0
  0
LINE
  5
6E
  8
SHOMEN1
  6
CENTER
 10
150.0
 20
177.0466909999999
 30
0.0
 11
150.0
 21
138.715406
 31
0.0
  0
LINE
  5
6F
  8
SHOMEN1
  6
CONTINUOUS
 62
     3
 10
126.40000000000001
 20
174.5
 30
0.0
 11
126.40000000000001
 21
150.5
 31
0.0
  0
LINE
  5
70
  8
SHOMEN1
  6
CENTER
 10
144.0
 20
169.5
 30
0.0
 11
161.41934699999999
 21
169.5
 31
0.0
  0
LINE
  5
71
  8
SHOMEN1
  6
CONTINUOUS
 62
     3
 10
127.90000000000001
 20
175.0
 30
0.0
 11
126.90000000000001
 21
174.0
 31
0.0
  0
LINE
  5
72
  8
SHOMEN1
  6
CONTINUOUS
 62
     3
 10
127.40000000000001
 20
175.5
 30
0.0
 11
172.59999999999991
 21
175.5
 31
0.0
  0
LINE
  5
73
  8
SHOMEN1
  6
CONTINUOUS
 62
     3
 10
127.40000000000001
 20
175.5
 30
0.0
 11
126.40000000000001
 21
174.5
 31
0.0
  0
LINE
  5
74
  8
SHOMEN1
  6
CONTINUOUS
 62
     3
 10
172.59999999999991
 20
175.5
 30
0.0
 11
173.59999999999991
 21
174.5
 31
0.0
  0
LINE
  5
75
  8
SHOMEN1
  6
CONTINUOUS
 62
     3
 10
160.0
 20
140.0
 30
0.0
 11
161.5
 21
141.5
 31
0.0
  0
ARC
  5
76
  8
SHOMEN1
  6
CONTINUOUS
 62
     3
 10
162.59999999999991
 20
156.0
 30
0.0
 40
1.8999999999999999
 50
113.1998429999999
 51
246.80015700000001
  0
ARC
  5
77
  8
SHOMEN1
  6
CONTINUOUS
 62
     3
 10
137.40000000000001
 20
156.0
 30
0.0
 40
1.8999999999999999
 50
293.19984299999999
 51
66.800156999999999
  0
ARC
  5
78
  8
SHOMEN1
  6
CONTINUOUS
 62
     3
 10
139.40000000000001
 20
160.89999999999989
 30
0.0
 40
2.1000000000000001
 50
90.0
 51
180.0
  0
ARC
  5
79
  8
SHOMEN1
  6
CONTINUOUS
 62
     3
 10
160.59999999999991
 20
160.89999999999989
 30
0.0
 40
2.1000000000000001
 50
0.0
 51
90.0
  0
LINE
  5
7A
  8
SHOMEN1
  6
CONTINUOUS
 62
     3
 10
162.6999999999999
 20
152.96684999999991
 30
0.0
 11
162.6999999999999
 21
150.220101
 31
0.0
  0
LINE
  5
7B
  8
SHOMEN1
  6
CONTINUOUS
 62
     3
 10
162.6999999999999
 20
160.89999999999989
 30
0.0
 11
162.6999999999999
 21
159.03315000000001
 31
0.0
  0
LINE
  5
7C
  8
SHOMEN1
  6
CONTINUOUS
 62
     3
 10
137.30000000000001
 20
152.96684999999991
 30
0.0
 11
137.30000000000001
 21
150.220101
 31
0.0
  0
LINE
  5
7D
  8
SHOMEN1
  6
CONTINUOUS
 62
     3
 10
137.30000000000001
 20
160.89999999999989
 30
0.0
 11
137.30000000000001
 21
159.03315000000001
 31
0.0
  0
ARC
  5
7E
  8
SHOMEN1
  6
CONTINUOUS
 62
     3
 10
138.69999999999999
 20
159.03315000000001
 30
0.0
 40
1.399999999999999
 50
180.0
 51
246.80015700000001
  0
ARC
  5
7F
  8
SHOMEN1
  6
CONTINUOUS
 62
     3
 10
138.69999999999999
 20
152.96684999999991
 30
0.0
 40
1.399999999999999
 50
113.1998429999999
 51
180.0
  0
ARC
  5
80
  8
SHOMEN1
  6
CONTINUOUS
 62
     3
 10
161.30000000000001
 20
159.03315000000001
 30
0.0
 40
1.399999999999999
 50
293.19984299999999
 51
0.0
  0
ARC
  5
81
  8
SHOMEN1
  6
CONTINUOUS
 62
     3
 10
161.30000000000001
 20
152.96684999999991
 30
0.0
 40
1.399999999999999
 50
0.0
 51
66.800156999999999
  0
LINE
  5
82
  8
SHOMEN0
  6
CONTINUOUS
 62
     3
 10
138.80000000000001
 20
149.5
 30
0.0
 11
127.2
 21
149.5
 31
0.0
  0
LINE
  5
83
  8
SHOMEN0
  6
CONTINUOUS
 62
     3
 10
127.90000000000001
 20
147.0
 30
0.0
 11
127.90000000000001
 21
149.30000000000001
 31
0.0
  0
ARC
  5
84
  8
SHOMEN0
  6
CONTINUOUS
 62
     3
 10
128.09999999999991
 20
147.0
 30
0.0
 40
0.2
 50
180.0
 51
270.0
  0
ARC
  5
85
  8
SHOMEN0
  6
CONTINUOUS
 62
     3
 10
128.09999999999991
 20
149.30000000000001
 30
0.0
 40
0.2
 50
90.0
 51
180.0
  0
LINE
  5
86
  8
SHOMEN0
  6
CONTINUOUS
 62
     3
 10
138.69999999999999
 20
146.80000000000001
 30
0.0
 11
138.59999999999991
 21
146.80000000000001
 31
0.0
  0
LINE
  5
87
  8
SHOMEN0
  6
CONTINUOUS
 62
     3
 10
137.40000000000001
 20
146.80000000000001
 30
0.0
 11
128.09999999999991
 21
146.80000000000001
 31
0.0
  0
LINE
  5
88
  8
SHOMEN0
  6
CONTINUOUS
 62
     3
 10
138.80000000000001
 20
146.80000000000001
 30
0.0
 11
138.59999999999991
 21
146.80000000000001
 31
0.0
  0
LINE
  5
89
  8
SHOMEN0
  6
CONTINUOUS
 62
     3
 10
138.59999999999991
 20
146.80000000000001
 30
0.0
 11
138.19570999999999
 21
148.72037800000001
 31
0.0
  0
LINE
  5
8A
  8
SHOMEN0
  6
CONTINUOUS
 62
     3
 10
137.40000000000001
 20
146.80000000000001
 30
0.0
 11
137.8042899999999
 21
148.72037800000001
 31
0.0
  0
ARC
  5
8B
  8
SHOMEN0
  6
CONTINUOUS
 62
     3
 10
138.0
 20
148.67917600000001
 30
0.0
 40
0.2
 50
11.888658
 51
168.11134199999989
  0
LINE
  5
8C
  8
SHOMEN0
  6
CONTINUOUS
 62
     3
 10
161.1999999999999
 20
149.5
 30
0.0
 11
173.0
 21
149.5
 31
0.0
  0
LINE
  5
8D
  8
SHOMEN0
  6
CONTINUOUS
 62
     3
 10
172.09999999999999
 20
147.0
 30
0.0
 11
172.09999999999999
 21
149.30000000000001
 31
0.0
  0
ARC
  5
8E
  8
SHOMEN0
  6
CONTINUOUS
 62
     3
 10
171.90000000000001
 20
147.0
 30
0.0
 40
0.2
 50
270.0
 51
0.0
  0
ARC
  5
8F
  8
SHOMEN0
  6
CONTINUOUS
 62
     3
 10
171.90000000000001
 20
149.30000000000001
 30
0.0
 40
0.2
 50
0.0
 51
90.0
  0
LINE
  5
90
  8
SHOMEN0
  6
CONTINUOUS
 62
     3
 10
161.30000000000001
 20
146.80000000000001
 30
0.0
 11
161.40000000000001
 21
146.80000000000001
 31
0.0
  0
LINE
  5
91
  8
SHOMEN0
  6
CONTINUOUS
 62
     3
 10
162.59999999999991
 20
146.80000000000001
 30
0.0
 11
171.90000000000001
 21
146.80000000000001
 31
0.0
  0
LINE
  5
92
  8
SHOMEN0
  6
CONTINUOUS
 62
     3
 10
161.1999999999999
 20
146.80000000000001
 30
0.0
 11
161.40000000000001
 21
146.80000000000001
 31
0.0
  0
LINE
  5
93
  8
SHOMEN0
  6
CONTINUOUS
 62
     3
 10
161.40000000000001
 20
146.80000000000001
 30
0.0
 11
161.8042899999999
 21
148.72037800000001
 31
0.0
  0
LINE
  5
94
  8
SHOMEN0
  6
CONTINUOUS
 62
     3
 10
162.59999999999991
 20
146.80000000000001
 30
0.0
 11
162.19570999999999
 21
148.72037800000001
 31
0.0
  0
ARC
  5
95
  8
SHOMEN0
  6
CONTINUOUS
 62
     3
 10
162.0
 20
148.67917600000001
 30
0.0
 40
0.2
 50
11.888658
 51
168.11134199999989
  0
POLYLINE
  5
96
  8
SHOMEN1
  6
CONTINUOUS
 62
     3
 66
     1
 10
0.0
 20
0.0
 30
0.0
 70
     2
  0
VERTEX
  5
97
  8
SHOMEN1
  6
CONTINUOUS
 62
     3
 10
157.56899799999991
 20
172.5
 30
0.0
 42
0.305821
  0
VERTEX
  5
98
  8
SHOMEN1
  6
CONTINUOUS
 62
     3
 10
157.28198499999999
 20
172.27163899999991
 30
0.0
 42
0.079631
  0
VERTEX
  5
99
  8
SHOMEN1
  6
CONTINUOUS
 62
     3
 10
157.038668
 20
171.62132
 30
0.0
 42
0.036862
  0
VERTEX
  5
9A
  8
SHOMEN1
  6
CONTINUOUS
 62
     3
 10
156.8760879999999
 20
170.64805000000001
 30
0.0
 42
0.02601
  0
VERTEX
  5
9B
  8
SHOMEN1
  6
CONTINUOUS
 62
     3
 10
156.81899799999991
 20
169.5
 30
0.0
 42
0.025075
  0
VERTEX
  5
9C
  8
SHOMEN1
  6
CONTINUOUS
 62
     3
 10
156.8760879999999
 20
168.3519499999999
 30
0.0
 42
0.032687
  0
VERTEX
  5
9D
  8
SHOMEN1
  6
CONTINUOUS
 62
     3
 10
157.038668
 20
167.37868
 30
0.0
 42
0.062412
  0
VERTEX
  5
9E
  8
SHOMEN1
  6
CONTINUOUS
 62
     3
 10
157.28198499999999
 20
166.72836100000001
 30
0.0
 42
0.212542
  0
VERTEX
  5
9F
  8
SHOMEN1
  6
CONTINUOUS
 62
     3
 10
157.56899799999991
 20
166.5
 30
0.0
  0
SEQEND
  5
A0
  8
SHOMEN1
  6
CONTINUOUS
 62
     3
  0
POLYLINE
  5
A1
  8
SHOMEN1
  6
CONTINUOUS
 62
     3
 66
     1
 10
0.0
 20
0.0
 30
0.0
 70
     1
  0
VERTEX
  5
2A3
  8
SHOMEN1
  6
CONTINUOUS
 62
     3
 10
159.76575299999999
 20
171.61985000000001
 30
0.0
 42
0.271028
  0
VERTEX
  5
2A4
  8
SHOMEN1
  6
CONTINUOUS
 62
     3
 10
159.517009
 20
171.45848599999999
 30
0.0
 42
0.090844
  0
VERTEX
  5
2A5
  8
SHOMEN1
  6
CONTINUOUS
 62
     3
 10
159.30613399999999
 20
170.99896000000001
 30
0.0
 42
0.044468
  0
VERTEX
  5
2A6
  8
SHOMEN1
  6
CONTINUOUS
 62
     3
 10
159.16523100000001
 20
170.31123099999991
 30
0.0
 42
0.031842
  0
VERTEX
  5
2A7
  8
SHOMEN1
  6
CONTINUOUS
 62
     3
 10
159.11575300000001
 20
169.5
 30
0.0
 42
0.030735
  0
VERTEX
  5
2A8
  8
SHOMEN1
  6
CONTINUOUS
 62
     3
 10
159.16523100000001
 20
168.68876900000001
 30
0.0
 42
0.039654
  0
VERTEX
  5
2A9
  8
SHOMEN1
  6
CONTINUOUS
 62
     3
 10
159.30613399999999
 20
168.00103999999999
 30
0.0
 42
0.072793
  0
VERTEX
  5
2AA
  8
SHOMEN1
  6
CONTINUOUS
 62
     3
 10
159.517009
 20
167.54151399999989
 30
0.0
 42
0.207453
  0
VERTEX
  5
2AB
  8
SHOMEN1
  6
CONTINUOUS
 62
     3
 10
159.76575299999999
 20
167.3801499999999
 30
0.0
 42
0.271028
  0
VERTEX
  5
2AC
  8
SHOMEN1
  6
CONTINUOUS
 62
     3
 10
160.01449700000001
 20
167.54151399999989
 30
0.0
 42
0.090844
  0
VERTEX
  5
2AD
  8
SHOMEN1
  6
CONTINUOUS
 62
     3
 10
160.22537199999999
 20
168.00103999999999
 30
0.0
 42
0.044468
  0
VERTEX
  5
2AE
  8
SHOMEN1
  6
CONTINUOUS
 62
     3
 10
160.36627499999989
 20
168.68876900000001
 30
0.0
 42
0.031842
  0
VERTEX
  5
2AF
  8
SHOMEN1
  6
CONTINUOUS
 62
     3
 10
160.41575299999991
 20
169.5
 30
0.0
 42
0.030735
  0
VERTEX
  5
2B0
  8
SHOMEN1
  6
CONTINUOUS
 62
     3
 10
160.36627499999989
 20
170.31123099999991
 30
0.0
 42
0.039654
  0
VERTEX
  5
2B1
  8
SHOMEN1
  6
CONTINUOUS
 62
     3
 10
160.22537199999999
 20
170.99896000000001
 30
0.0
 42
0.072793
  0
VERTEX
  5
2B2
  8
SHOMEN1
  6
CONTINUOUS
 62
     3
 10
160.01449700000001
 20
171.45848599999999
 30
0.0
 42
0.207453
  0
SEQEND
  5
2B3
  8
SHOMEN1
  6
CONTINUOUS
 62
     3
  0
POLYLINE
  5
B3
  8
SHOMEN1
  6
CONTINUOUS
 62
     3
 66
     1
 10
0.0
 20
0.0
 30
0.0
 70
     2
  0
VERTEX
  5
B4
  8
SHOMEN1
  6
CONTINUOUS
 62
     3
 10
155.49780000000001
 20
171.7535499999999
 30
0.0
 42
0.2817989999999999
  0
VERTEX
  5
B5
  8
SHOMEN1
  6
CONTINUOUS
 62
     3
 10
155.24905499999991
 20
171.582009
 30
0.0
 42
0.087555
  0
VERTEX
  5
B6
  8
SHOMEN1
  6
CONTINUOUS
 62
     3
 10
155.03818000000001
 20
171.09350000000001
 30
0.0
 42
0.042067
  0
VERTEX
  5
B7
  8
SHOMEN1
  6
CONTINUOUS
 62
     3
 10
154.89727799999989
 20
170.3623959999999
 30
0.0
 42
0.029972
  0
VERTEX
  5
B8
  8
SHOMEN1
  6
CONTINUOUS
 62
     3
 10
154.84780000000001
 20
169.5
 30
0.0
 42
0.028918
  0
VERTEX
  5
B9
  8
SHOMEN1
  6
CONTINUOUS
 62
     3
 10
154.89727799999989
 20
168.63760400000001
 30
0.0
 42
0.037442
  0
VERTEX
  5
BA
  8
SHOMEN1
  6
CONTINUOUS
 62
     3
 10
155.03818000000001
 20
167.90649999999999
 30
0.0
 42
0.069648
  0
VERTEX
  5
BB
  8
SHOMEN1
  6
CONTINUOUS
 62
     3
 10
155.24905499999991
 20
167.417991
 30
0.0
 42
0.209863
  0
VERTEX
  5
BC
  8
SHOMEN1
  6
CONTINUOUS
 62
     3
 10
155.49780000000001
 20
167.24645000000001
 30
0.0
  0
SEQEND
  5
BD
  8
SHOMEN1
  6
CONTINUOUS
 62
     3
  0
ARC
  5
BE
  8
SHOMEN1
  6
CONTINUOUS
 62
     3
 10
159.76575299999999
 20
169.5
 30
0.0
 40
0.6
 50
270.0
 51
90.0
  0
POLYLINE
  5
BF
  8
SHOMEN1
  6
CONTINUOUS
 62
     3
 66
     1
 10
0.0
 20
0.0
 30
0.0
 70
     2
  0
VERTEX
  5
C0
  8
SHOMEN1
  6
CONTINUOUS
 62
     3
 10
159.76575299999999
 20
170.09999999999999
 30
0.0
 42
0.305821
  0
VERTEX
  5
C1
  8
SHOMEN1
  6
CONTINUOUS
 62
     3
 10
159.70835099999999
 20
170.05432799999991
 30
0.0
 42
0.079631
  0
VERTEX
  5
C2
  8
SHOMEN1
  6
CONTINUOUS
 62
     3
 10
159.65968699999999
 20
169.92426399999999
 30
0.0
 42
0.036862
  0
VERTEX
  5
C3
  8
SHOMEN1
  6
CONTINUOUS
 62
     3
 10
159.627171
 20
169.72961000000001
 30
0.0
 42
0.02601
  0
VERTEX
  5
C4
  8
SHOMEN1
  6
CONTINUOUS
 62
     3
 10
159.61575300000001
 20
169.5
 30
0.0
 42
0.025075
  0
VERTEX
  5
C5
  8
SHOMEN1
  6
CONTINUOUS
 62
     3
 10
159.627171
 20
169.27038999999991
 30
0.0
 42
0.032687
  0
VERTEX
  5
C6
  8
SHOMEN1
  6
CONTINUOUS
 62
     3
 10
159.65968699999999
 20
169.07573600000001
 30
0.0
 42
0.062412
  0
VERTEX
  5
C7
  8
SHOMEN1
  6
CONTINUOUS
 62
     3
 10
159.70835099999999
 20
168.945672
 30
0.0
 42
0.212542
  0
VERTEX
  5
C8
  8
SHOMEN1
  6
CONTINUOUS
 62
     3
 10
159.76575299999999
 20
168.90000000000001
 30
0.0
  0
SEQEND
  5
C9
  8
SHOMEN1
  6
CONTINUOUS
 62
     3
  0
LINE
  5
CA
  8
SHOMEN1
  6
CONTINUOUS
 62
     3
 10
139.40000000000001
 20
163.0
 30
0.0
 11
160.59999999999991
 21
163.0
 31
0.0
  0
LINE
  5
CB
  8
SHOMEN0
  6
CONTINUOUS
 62
     3
 10
128.38076099999989
 20
171.78076100000001
 30
0.0
 11
130.2192389999999
 21
173.61923899999999
 31
0.0
  0
LINE
  5
CC
  8
SHOMEN0
  6
CONTINUOUS
 62
     3
 10
128.38076099999989
 20
173.61923899999999
 30
0.0
 11
130.2192389999999
 21
171.78076100000001
 31
0.0
  0
CIRCLE
  5
CD
  8
SHOMEN0
  6
CONTINUOUS
 62
     3
 10
129.30000000000001
 20
172.6999999999999
 30
0.0
 40
2.25
  0
LINE
  5
CE
  8
SHOMEN0
  6
CONTINUOUS
 62
     3
 10
169.78076100000001
 20
171.78076100000001
 30
0.0
 11
171.61923899999991
 21
173.61923899999999
 31
0.0
  0
LINE
  5
CF
  8
SHOMEN0
  6
CONTINUOUS
 62
     3
 10
169.78076100000001
 20
173.61923899999999
 30
0.0
 11
171.61923899999991
 21
171.78076100000001
 31
0.0
  0
CIRCLE
  5
D0
  8
SHOMEN0
  6
CONTINUOUS
 62
     3
 10
170.6999999999999
 20
172.6999999999999
 30
0.0
 40
2.25
  0
LINE
  5
D1
  8
SHOMEN0
  6
CONTINUOUS
 62
     3
 10
169.78076100000001
 20
151.580761
 30
0.0
 11
171.61923899999991
 21
153.41923899999989
 31
0.0
  0
LINE
  5
D2
  8
SHOMEN0
  6
CONTINUOUS
 62
     3
 10
169.78076100000001
 20
153.41923899999989
 30
0.0
 11
171.61923899999991
 21
151.580761
 31
0.0
  0
CIRCLE
  5
D3
  8
SHOMEN0
  6
CONTINUOUS
 62
     3
 10
170.6999999999999
 20
152.5
 30
0.0
 40
2.25
  0
LINE
  5
D4
  8
SHOMEN0
  6
CONTINUOUS
 62
     3
 10
128.38076099999989
 20
151.580761
 30
0.0
 11
130.2192389999999
 21
153.41923899999989
 31
0.0
  0
LINE
  5
D5
  8
SHOMEN0
  6
CONTINUOUS
 62
     3
 10
128.38076099999989
 20
153.41923899999989
 30
0.0
 11
130.2192389999999
 21
151.580761
 31
0.0
  0
CIRCLE
  5
D6
  8
SHOMEN0
  6
CONTINUOUS
 62
     3
 10
129.30000000000001
 20
152.5
 30
0.0
 40
2.25
  0
LINE
  5
D7
  8
SHOMEN0
  6
CONTINUOUS
 62
     3
 10
161.52500000000001
 20
161.0
 30
0.0
 11
161.52500000000001
 21
158.91829999999999
 31
0.0
  0
LINE
  5
D8
  8
SHOMEN0
  6
CONTINUOUS
 62
     3
 10
138.47499999999991
 20
161.0
 30
0.0
 11
138.47499999999991
 21
158.91829999999999
 31
0.0
  0
ARC
  5
D9
  8
SHOMEN0
  6
CONTINUOUS
 62
     3
 10
139.47499999999991
 20
161.0
 30
0.0
 40
1.0
 50
90.0
 51
180.0
  0
ARC
  5
DA
  8
SHOMEN0
  6
CONTINUOUS
 62
     3
 10
160.52500000000001
 20
161.0
 30
0.0
 40
1.0
 50
0.0
 51
90.0
  0
ARC
  5
DB
  8
SHOMEN0
  6
CONTINUOUS
 62
     3
 10
162.59999999999991
 20
156.0
 30
0.0
 40
3.109999999999999
 50
110.222039
 51
157.30335099999991
  0
ARC
  5
DC
  8
SHOMEN0
  6
CONTINUOUS
 62
     3
 10
162.59999999999991
 20
156.0
 30
0.0
 40
3.109999999999999
 50
202.69664899999989
 51
249.28634600000001
  0
ARC
  5
DD
  8
SHOMEN0
  6
CONTINUOUS
 62
     3
 10
137.40000000000001
 20
156.0
 30
0.0
 40
3.109999999999999
 50
290.71365400000002
 51
337.30335099999991
  0
ARC
  5
DE
  8
SHOMEN0
  6
CONTINUOUS
 62
     3
 10
137.40000000000001
 20
156.0
 30
0.0
 40
3.109999999999999
 50
22.69664899999999
 51
69.777961000000005
  0
LINE
  5
DF
  8
SHOMEN0
  6
CONTINUOUS
 62
     3
 10
158.30000000000001
 20
157.1999999999999
 30
0.0
 11
159.73083600000001
 21
157.1999999999999
 31
0.0
  0
LINE
  5
E0
  8
SHOMEN0
  6
CONTINUOUS
 62
     3
 10
158.30000000000001
 20
154.80000000000001
 30
0.0
 11
159.73083600000001
 21
154.80000000000001
 31
0.0
  0
ARC
  5
E1
  8
SHOMEN0
  6
CONTINUOUS
 62
     3
 10
158.30000000000001
 20
156.6999999999999
 30
0.0
 40
0.5
 50
90.0
 51
180.0
  0
ARC
  5
E2
  8
SHOMEN0
  6
CONTINUOUS
 62
     3
 10
158.30000000000001
 20
155.30000000000001
 30
0.0
 40
0.5
 50
180.0
 51
270.0
  0
LINE
  5
E3
  8
SHOMEN0
  6
CONTINUOUS
 62
     3
 10
141.6999999999999
 20
157.1999999999999
 30
0.0
 11
140.26916399999999
 21
157.1999999999999
 31
0.0
  0
LINE
  5
E4
  8
SHOMEN0
  6
CONTINUOUS
 62
     3
 10
141.6999999999999
 20
154.80000000000001
 30
0.0
 11
140.26916399999999
 21
154.80000000000001
 31
0.0
  0
ARC
  5
E5
  8
SHOMEN0
  6
CONTINUOUS
 62
     3
 10
141.6999999999999
 20
155.30000000000001
 30
0.0
 40
0.5
 50
270.0
 51
0.0
  0
LINE
  5
E6
  8
SHOMEN0
  6
CONTINUOUS
 62
     3
 10
138.80000000000001
 20
150.6999999999999
 30
0.0
 11
138.80000000000001
 21
145.5
 31
0.0
  0
LINE
  5
E7
  8
SHOMEN0
  6
CONTINUOUS
 62
     3
 10
138.5
 20
151.0
 30
0.0
 11
138.80000000000001
 21
150.6999999999999
 31
0.0
  0
LINE
  5
E8
  8
SHOMEN0
  6
CONTINUOUS
 62
     3
 10
138.94644700000001
 20
145.35355300000001
 30
0.0
 11
138.80000000000001
 21
145.5
 31
0.0
  0
LINE
  5
E9
  8
SHOMEN0
  6
CONTINUOUS
 62
     3
 10
138.5
 20
144.1999999999999
 30
0.0
 11
138.94644700000001
 21
144.64644699999999
 31
0.0
  0
LINE
  5
EA
  8
SHOMEN1
  6
CONTINUOUS
 62
     3
 10
138.5
 20
144.1999999999999
 30
0.0
 11
138.5
 21
141.5
 31
0.0
  0
LINE
  5
EB
  8
SHOMEN1
  6
CONTINUOUS
 62
     3
 10
138.5
 20
153.09103099999999
 30
0.0
 11
138.5
 21
151.0
 31
0.0
  0
ARC
  5
EC
  8
SHOMEN0
  6
CONTINUOUS
 62
     3
 10
138.592893
 20
145.0
 30
0.0
 40
0.5
 50
315.0
 51
45.0
  0
LINE
  5
ED
  8
SHOMEN0
  6
CONTINUOUS
 62
     3
 10
161.1999999999999
 20
150.6999999999999
 30
0.0
 11
161.5
 21
151.0
 31
0.0
  0
LINE
  5
EE
  8
SHOMEN0
  6
CONTINUOUS
 62
     3
 10
161.1999999999999
 20
145.30000000000001
 30
0.0
 11
161.5
 21
145.0
 31
0.0
  0
LINE
  5
EF
  8
SHOMEN0
  6
CONTINUOUS
 62
     3
 10
161.1999999999999
 20
145.30000000000001
 30
0.0
 11
161.1999999999999
 21
150.6999999999999
 31
0.0
  0
LINE
  5
F0
  8
SHOMEN1
  6
CONTINUOUS
 62
     3
 10
161.5
 20
141.5
 30
0.0
 11
161.5
 21
145.0
 31
0.0
  0
LINE
  5
F1
  8
SHOMEN1
  6
CONTINUOUS
 62
     3
 10
161.5
 20
151.0
 30
0.0
 11
161.5
 21
153.05515700000001
 31
0.0
  0
LINE
  5
F2
  8
SHOMEN0
  6
CONTINUOUS
 62
     3
 10
158.30000000000001
 20
157.1999999999999
 30
0.0
 11
159.73083600000001
 21
157.1999999999999
 31
0.0
  0
LINE
  5
F3
  8
SHOMEN0
  6
CONTINUOUS
 62
     3
 10
137.30000000000001
 20
150.220101
 30
0.0
 11
137.40000000000001
 21
150.12010100000001
 31
0.0
  0
LINE
  5
F4
  8
SHOMEN0
  6
CONTINUOUS
 62
     3
 10
137.40000000000001
 20
150.12010100000001
 30
0.0
 11
137.40000000000001
 21
149.5
 31
0.0
  0
LINE
  5
F5
  8
SHOMEN0
  6
CONTINUOUS
 62
     3
 10
162.59999999999991
 20
150.12010100000001
 30
0.0
 11
162.6999999999999
 21
150.220101
 31
0.0
  0
LINE
  5
F6
  8
SHOMEN0
  6
CONTINUOUS
 62
     3
 10
162.59999999999991
 20
149.5
 30
0.0
 11
162.59999999999991
 21
150.12010100000001
 31
0.0
  0
ARC
  5
F7
  8
SHOMEN0
  6
CONTINUOUS
 62
     3
 10
141.6999999999999
 20
156.6999999999999
 30
0.0
 40
0.5
 50
0.0
 51
90.0
  0
LINE
  5
F8
  8
SHOMEN1
  6
CONTINUOUS
 62
     3
 10
142.1999999999999
 20
155.30000000000001
 30
0.0
 11
142.1999999999999
 21
156.6999999999999
 31
0.0
  0
ARC
  5
F9
  8
SHOMEN0
  6
CONTINUOUS
 62
     3
 10
170.6999999999999
 20
152.5
 30
0.0
 40
2.5
 50
16.260204999999999
 51
343.73979500000002
  0
ARC
  5
FA
  8
SHOMEN0
  6
CONTINUOUS
 62
     3
 10
129.30000000000001
 20
152.5
 30
0.0
 40
2.5
 50
196.26020500000001
 51
163.7397949999999
  0
ARC
  5
FB
  8
SHOMEN0
  6
CONTINUOUS
 62
     3
 10
170.6999999999999
 20
172.6999999999999
 30
0.0
 40
2.5
 50
16.260204999999999
 51
66.926081999999994
  0
ARC
  5
FC
  8
SHOMEN0
  6
CONTINUOUS
 62
     3
 10
170.6999999999999
 20
172.6999999999999
 30
0.0
 40
2.5
 50
113.07391799999991
 51
343.73979500000002
  0
ARC
  5
FD
  8
SHOMEN0
  6
CONTINUOUS
 62
     3
 10
129.30000000000001
 20
172.6999999999999
 30
0.0
 40
2.5
 50
113.07391799999991
 51
163.7397949999999
  0
ARC
  5
FE
  8
SHOMEN0
  6
CONTINUOUS
 62
     3
 10
129.30000000000001
 20
172.6999999999999
 30
0.0
 40
2.5
 50
196.26020500000001
 51
66.926081999999994
  0
LINE
  5
FF
  8
SHOMEN0
  6
CONTINUOUS
 62
     3
 10
174.0
 20
174.5
 30
0.0
 11
174.0
 21
150.5
 31
0.0
  0
LINE
  5
100
  8
SHOMEN0
  6
CONTINUOUS
 62
     3
 10
172.5
 20
176.0
 30
0.0
 11
174.0
 21
174.5
 31
0.0
  0
LINE
  5
101
  8
SHOMEN0
  6
CONTINUOUS
 62
     3
 10
154.0
 20
176.0
 30
0.0
 11
154.49999999999989
 21
175.5
 31
0.0
  0
LINE
  5
102
  8
SHOMEN0
  6
CONTINUOUS
 62
     3
 10
162.0
 20
176.0
 30
0.0
 11
161.5
 21
175.5
 31
0.0
  0
LINE
  5
103
  8
SHOMEN0
  6
CONTINUOUS
 62
     3
 10
150.0
 20
176.0
 30
0.0
 11
154.0
 21
176.0
 31
0.0
  0
LINE
  5
104
  8
SHOMEN0
  6
CONTINUOUS
 62
     3
 10
162.0
 20
176.0
 30
0.0
 11
172.5
 21
176.0
 31
0.0
  0
LINE
  5
105
  8
SHOMEN0
  6
CONTINUOUS
 62
     3
 10
150.0
 20
176.0
 30
0.0
 11
146.0
 21
176.0
 31
0.0
  0
LINE
  5
106
  8
SHOMEN0
  6
CONTINUOUS
 62
     3
 10
146.0
 20
176.0
 30
0.0
 11
145.5
 21
175.5
 31
0.0
  0
LINE
  5
107
  8
SHOMEN0
  6
CONTINUOUS
 62
     3
 10
138.0
 20
176.0
 30
0.0
 11
138.5
 21
175.5
 31
0.0
  0
LINE
  5
108
  8
SHOMEN0
  6
CONTINUOUS
 62
     3
 10
138.0
 20
176.0
 30
0.0
 11
127.5
 21
176.0
 31
0.0
  0
LINE
  5
109
  8
SHOMEN0
  6
CONTINUOUS
 62
     3
 10
127.5
 20
176.0
 30
0.0
 11
126.0
 21
174.5
 31
0.0
  0
LINE
  5
10A
  8
SHOMEN0
  6
DASHED
 10
135.49999999999989
 20
175.65000000000001
 30
0.0
 11
135.49999999999989
 21
164.0
 31
0.0
  0
LINE
  5
10B
  8
SHOMEN0
  6
CENTER
 10
132.49999999999989
 20
177.14998899999989
 30
0.0
 11
132.49999999999989
 21
158.199591
 31
0.0
  0
LINE
  5
10C
  8
SHOMEN0
  6
DASHED
 10
129.49999999999989
 20
175.65000000000001
 30
0.0
 11
129.49999999999989
 21
164.0
 31
0.0
  0
LINE
  5
10D
  8
SHOMEN0
  6
DASHED
 10
129.49999999999989
 20
164.0
 30
0.0
 11
135.49999999999989
 21
164.0
 31
0.0
  0
ARC
  5
10E
  8
SHOMEN0
  6
CONTINUOUS
 62
     3
 10
125.40000000000001
 20
171.5
 30
0.0
 40
0.8
 50
318.59037799999987
 51
41.409621999999992
  0
LINE
  5
10F
  8
SHOMEN0
  6
CONTINUOUS
 62
     3
 10
126.0
 20
170.97085000000001
 30
0.0
 11
126.0
 21
168.0
 31
0.0
  0
LINE
  5
110
  8
SHOMEN0
  6
CONTINUOUS
 62
     3
 10
126.0
 20
174.5
 30
0.0
 11
126.0
 21
172.0291499999999
 31
0.0
  0
LINE
  5
111
  8
SHOMEN0
  6
CONTINUOUS
 62
     3
 10
126.2
 20
168.0
 30
0.0
 11
126.0
 21
168.0
 31
0.0
  0
LINE
  5
112
  8
SHOMEN0
  6
CONTINUOUS
 62
     3
 10
126.2
 20
168.0
 30
0.0
 11
126.2
 21
150.5
 31
0.0
  0
LINE
  5
113
  8
SHOMEN0
  6
CONTINUOUS
 62
     3
 10
161.5
 20
175.5
 30
0.0
 11
154.49999999999989
 21
175.5
 31
0.0
  0
LINE
  5
114
  8
SHOMEN0
  6
CONTINUOUS
 62
     3
 10
145.5
 20
175.5
 30
0.0
 11
138.5
 21
175.5
 31
0.0
  0
LINE
  5
115
  8
SHOMEN0
  6
CONTINUOUS
 62
     3
 10
126.2
 20
150.5
 30
0.0
 11
127.2
 21
149.5
 31
0.0
  0
LINE
  5
116
  8
SHOMEN0
  6
CONTINUOUS
 62
     3
 10
174.0
 20
150.5
 30
0.0
 11
173.0
 21
149.5
 31
0.0
  0
LINE
  5
117
  8
SHOMEN0
  6
DASHED
 10
129.9499999999999
 20
161.0
 30
0.0
 11
135.05000000000001
 21
161.0
 31
0.0
  0
LINE
  5
118
  8
SHOMEN0
  6
DASHED
 10
135.05000000000001
 20
175.1999999999999
 30
0.0
 11
135.05000000000001
 21
161.0
 31
0.0
  0
LINE
  5
119
  8
SHOMEN0
  6
DASHED
 10
129.9499999999999
 20
175.1999999999999
 30
0.0
 11
129.9499999999999
 21
161.0
 31
0.0
  0
LINE
  5
11A
  8
SHOMEN0
  6
DASHED
 10
135.05000000000001
 20
161.0
 30
0.0
 11
132.49999999999989
 21
159.52775700000001
 31
0.0
  0
LINE
  5
11B
  8
SHOMEN0
  6
DASHED
 10
135.05000000000001
 20
175.1999999999999
 30
0.0
 11
135.84999999999999
 21
176.0
 31
0.0
  0
LINE
  5
11C
  8
SHOMEN0
  6
DASHED
 10
129.15000000000001
 20
176.0
 30
0.0
 11
129.9499999999999
 21
175.1999999999999
 31
0.0
  0
LINE
  5
11D
  8
SHOMEN0
  6
DASHED
 10
129.9499999999999
 20
161.0
 30
0.0
 11
132.49999999999989
 21
159.52775700000001
 31
0.0
  0
LINE
  5
11E
  8
SHOMEN0
  6
DASHED
 10
129.9499999999999
 20
175.1999999999999
 30
0.0
 11
135.05000000000001
 21
175.1999999999999
 31
0.0
  0
LINE
  5
11F
  8
SHOMEN0
  6
DASHED
 10
164.9499999999999
 20
175.1999999999999
 30
0.0
 11
164.15000000000001
 21
176.0
 31
0.0
  0
LINE
  5
120
  8
SHOMEN0
  6
DASHED
 10
170.05000000000001
 20
175.1999999999999
 30
0.0
 11
164.9499999999999
 21
175.1999999999999
 31
0.0
  0
LINE
  5
121
  8
SHOMEN0
  6
DASHED
 10
164.5
 20
175.65000000000001
 30
0.0
 11
164.5
 21
164.0
 31
0.0
  0
LINE
  5
122
  8
SHOMEN0
  6
DASHED
 10
164.9499999999999
 20
175.1999999999999
 30
0.0
 11
164.9499999999999
 21
161.0
 31
0.0
  0
LINE
  5
123
  8
SHOMEN0
  6
DASHED
 10
170.84999999999991
 20
176.0
 30
0.0
 11
170.05000000000001
 21
175.1999999999999
 31
0.0
  0
LINE
  5
124
  8
SHOMEN0
  6
DASHED
 10
170.5
 20
175.65000000000001
 30
0.0
 11
170.5
 21
164.0
 31
0.0
  0
LINE
  5
125
  8
SHOMEN0
  6
DASHED
 10
170.05000000000001
 20
175.1999999999999
 30
0.0
 11
170.05000000000001
 21
161.0
 31
0.0
  0
LINE
  5
126
  8
SHOMEN0
  6
CENTER
 10
167.5
 20
177.14998899999989
 30
0.0
 11
167.5
 21
158.199591
 31
0.0
  0
LINE
  5
127
  8
SHOMEN0
  6
DASHED
 10
170.5
 20
164.0
 30
0.0
 11
164.5
 21
164.0
 31
0.0
  0
LINE
  5
128
  8
SHOMEN0
  6
DASHED
 10
170.05000000000001
 20
161.0
 30
0.0
 11
164.9499999999999
 21
161.0
 31
0.0
  0
LINE
  5
129
  8
SHOMEN0
  6
DASHED
 10
170.05000000000001
 20
161.0
 30
0.0
 11
167.5
 21
159.52775700000001
 31
0.0
  0
LINE
  5
12A
  8
SHOMEN0
  6
DASHED
 10
164.9499999999999
 20
161.0
 30
0.0
 11
167.5
 21
159.52775700000001
 31
0.0
  0
LINE
  5
12B
  8
HEIMEN1
  6
CENTER
 10
276.25485600000002
 20
270.0
 30
0.0
 11
525.81408799999997
 21
270.0
 31
0.0
  0
LINE
  5
12C
  8
HEIMEN1
  6
CONTINUOUS
 62
     3
 10
520.0
 20
280.5
 30
0.0
 11
520.0
 21
259.5
 31
0.0
  0
LINE
  5
12D
  8
HEIMEN1
  6
CONTINUOUS
 62
     3
 10
280.0
 20
280.5
 30
0.0
 11
280.0
 21
259.5
 31
0.0
  0
LINE
  5
12E
  8
HEIMEN1
  6
CENTER
 10
310.0
 20
279.10615799999999
 30
0.0
 11
310.0
 21
262.03212300000001
 31
0.0
  0
CIRCLE
  5
12F
  8
HEIMEN1
  6
CONTINUOUS
 62
     3
 10
310.0
 20
270.0
 30
0.0
 40
5.5
  0
CIRCLE
  5
130
  8
HEIMEN1
  6
CONTINUOUS
 62
     3
 10
310.0
 20
270.0
 30
0.0
 40
3.5
  0
CIRCLE
  5
131
  8
HEIMEN1
  6
CONTINUOUS
 62
     3
 10
490.0
 20
270.0
 30
0.0
 40
5.5
  0
CIRCLE
  5
132
  8
HEIMEN1
  6
CONTINUOUS
 62
     3
 10
490.0
 20
270.0
 30
0.0
 40
3.5
  0
LINE
  5
133
  8
HEIMEN1
  6
CENTER
 10
490.0
 20
278.72672599999993
 30
0.0
 11
490.0
 21
262.03212300000001
 31
0.0
  0
LINE
  5
134
  8
HEIMEN1
  6
CONTINUOUS
 62
     3
 10
443.35000000000002
 20
293.10000000000002
 30
0.0
 11
443.35000000000002
 21
246.90000000000001
 31
0.0
  0
LINE
  5
135
  8
HEIMEN0
  6
CONTINUOUS
 62
     3
 10
342.45004599999987
 20
259.36994599999991
 30
0.0
 11
344.66735699999992
 21
258.45150599999999
 31
0.0
  0
LINE
  5
136
  8
HEIMEN0
  6
CONTINUOUS
 62
     3
 10
342.65179999999992
 20
262.20883599999991
 30
0.0
 11
345.700602
 21
260.94598100000002
 31
0.0
  0
LINE
  5
137
  8
HEIMEN0
  6
CONTINUOUS
 62
     3
 10
344.92255799999992
 20
267.11317500000001
 30
0.0
 11
347.76709299999987
 21
265.93493000000001
 31
0.0
  0
ARC
  5
138
  8
HEIMEN0
  6
CONTINUOUS
 62
     3
 10
345.700602
 20
260.94598100000002
 30
0.0
 40
3.2999999999999989
 50
125.547254
 51
157.5
  0
LINE
  5
139
  8
HEIMEN0
  6
CONTINUOUS
 62
     3
 10
342.45004599999987
 20
259.36994599999991
 30
0.0
 11
342.65179999999992
 21
262.20883599999991
 31
0.0
  0
LINE
  5
13A
  8
HEIMEN0
  6
CONTINUOUS
 62
     3
 10
343.22174599999988
 20
265.54465099999987
 30
0.0
 11
343.91057599999988
 21
267.20763399999993
 31
0.0
  0
LINE
  5
13B
  8
HEIMEN0
  6
CONTINUOUS
 62
     3
 10
344.05529000000001
 20
263.517808
 30
0.0
 11
346.36892999999992
 21
262.55946699999993
 31
0.0
  0
LINE
  5
13C
  8
HEIMEN0
  6
CONTINUOUS
 62
     3
 10
345.093526
 20
264.7693339999999
 30
0.0
 11
345.78235599999999
 21
266.43231700000001
 31
0.0
  0
ARC
  5
13D
  8
HEIMEN0
  6
CONTINUOUS
 62
     3
 10
344.85869899999989
 20
258.91344600000002
 30
0.0
 40
1.0
 50
187.49999999999989
 51
247.5
  0
LINE
  5
13E
  8
HEIMEN0
  6
CONTINUOUS
 62
     3
 10
346.88466799999998
 20
257.53306600000002
 30
0.0
 11
344.66735699999992
 21
258.45150599999999
 31
0.0
  0
LINE
  5
13F
  8
HEIMEN0
  6
CONTINUOUS
 62
     3
 10
348.74940499999991
 20
259.68312500000002
 30
0.0
 11
345.700602
 21
260.94598100000002
 31
0.0
  0
LINE
  5
140
  8
HEIMEN0
  6
CONTINUOUS
 62
     3
 10
350.58931699999999
 20
264.76592699999992
 30
0.0
 11
347.76709299999987
 21
265.93493000000001
 31
0.0
  0
ARC
  5
141
  8
HEIMEN0
  6
CONTINUOUS
 62
     3
 10
345.700602
 20
260.94598100000002
 30
0.0
 40
3.2999999999999989
 50
337.5
 51
9.4527460000000012
  0
LINE
  5
142
  8
HEIMEN0
  6
CONTINUOUS
 62
     3
 10
346.88466799999998
 20
257.53306600000002
 30
0.0
 11
348.74940499999991
 21
259.68312500000002
 31
0.0
  0
ARC
  5
143
  8
HEIMEN0
  6
CONTINUOUS
 62
     3
 10
353.43745999999999
 20
257.308312
 30
0.0
 40
6.1281919999999994
 50
123.20871099999999
 51
136.99713799999989
  0
LINE
  5
144
  8
HEIMEN0
  6
CONTINUOUS
 62
     3
 10
350.70517000000001
 20
262.44491499999992
 30
0.0
 11
351.39400000000001
 21
264.10789799999992
 31
0.0
  0
LINE
  5
145
  8
HEIMEN0
  6
CONTINUOUS
 62
     3
 10
348.682571
 20
261.60112500000002
 30
0.0
 11
346.36892999999992
 21
262.55946699999993
 31
0.0
  0
LINE
  5
146
  8
HEIMEN0
  6
CONTINUOUS
 62
     3
 10
348.83339000000001
 20
263.22023200000001
 30
0.0
 11
349.52222
 21
264.88321500000001
 31
0.0
  0
ARC
  5
147
  8
HEIMEN0
  6
CONTINUOUS
 62
     3
 10
344.85869899999989
 20
258.91344600000002
 30
0.0
 40
1.0
 50
247.5
 51
307.5
  0
ARC
  5
148
  8
HEIMEN0
  6
CONTINUOUS
 62
     3
 10
344.75448599999987
 20
266.597916
 30
0.0
 40
1.859747
 50
214.495992
 51
280.504008
  0
ARC
  5
149
  8
HEIMEN0
  6
CONTINUOUS
 62
     3
 10
349.51887499999998
 20
270.164106
 30
0.0
 40
6.977627
 50
230.637855
 51
264.36214499999988
  0
ARC
  5
14A
  8
HEIMEN0
  6
CONTINUOUS
 62
     3
 10
350.36594200000002
 20
264.27304399999991
 30
0.0
 40
1.8593360000000001
 50
214.487764
 51
280.51223599999997
  0
ARC
  5
14B
  8
HEIMEN0
  6
CONTINUOUS
 62
     3
 10
337.65759800000001
 20
263.84454499999998
 30
0.0
 40
6.1281919999999994
 50
358.00286199999999
 51
11.79219999999999
  0
ARC
  5
14C
  8
HEIMEN0
  6
CONTINUOUS
 62
     3
 10
344.25049200000001
 20
265.381167
 30
0.0
 40
1.8578279999999989
 50
34.457540000000002
 51
100.54246000000001
  0
ARC
  5
14D
  8
HEIMEN0
  6
CONTINUOUS
 62
     3
 10
345.09687100000002
 20
259.48844400000002
 30
0.0
 40
6.977627
 50
50.637855000000009
 51
84.362144999999998
  0
ARC
  5
14E
  8
HEIMEN0
  6
CONTINUOUS
 62
     3
 10
349.86121700000001
 20
263.05453
 30
0.0
 40
1.8598410000000001
 50
34.497871999999987
 51
100.502128
  0
ARC
  5
14F
  8
HEIMEN0
  6
CONTINUOUS
 62
     3
 10
349.45089999999988
 20
270.0
 30
0.0
 40
5.0
 50
126.86989800000001
 51
219.1423629999999
  0
LINE
  5
150
  8
HEIMEN0
  6
CONTINUOUS
 62
     3
 10
351.041222
 20
266.0
 30
0.0
 11
350.53862299999992
 21
264.78661799999998
 31
0.0
  0
LINE
  5
151
  8
HEIMEN0
  6
CONTINUOUS
 62
     3
 10
345.14852799999989
 20
267.45253199999991
 30
0.0
 11
344.99549400000001
 21
267.083077
 31
0.0
  0
LINE
  5
152
  8
HEIMEN0
  6
CONTINUOUS
 62
     3
 10
352.45004599999999
 20
266.0
 30
0.0
 11
352.45004599999999
 21
274.0
 31
0.0
  0
LINE
  5
153
  8
HEIMEN0
  6
CONTINUOUS
 62
     3
 10
443.35000000000002
 20
246.90000000000001
 30
0.0
 11
444.85000000000002
 21
246.90000000000001
 31
0.0
  0
LINE
  5
154
  8
HEIMEN0
  6
CONTINUOUS
 62
     3
 10
443.35000000000002
 20
293.10000000000002
 30
0.0
 11
444.85000000000002
 21
293.10000000000002
 31
0.0
  0
LINE
  5
155
  8
HEIMEN0
  6
CONTINUOUS
 62
     3
 10
352.74999999999989
 20
274.60000000000002
 30
0.0
 11
355.14999999999992
 21
274.60000000000002
 31
0.0
  0
LINE
  5
156
  8
HEIMEN0
  6
CONTINUOUS
 62
     3
 10
352.74999999999989
 20
265.39999999999992
 30
0.0
 11
355.14999999999992
 21
265.39999999999992
 31
0.0
  0
LINE
  5
157
  8
HEIMEN0
  6
CONTINUOUS
 62
     3
 10
346.45089999999999
 20
274.0
 30
0.0
 11
352.51449200000002
 21
274.0
 31
0.0
  0
LINE
  5
158
  8
HEIMEN0
  6
CONTINUOUS
 62
     3
 10
347.61000000000001
 20
266.0
 30
0.0
 11
352.51449200000002
 21
266.0
 31
0.0
  0
LINE
  5
159
  8
HEIMEN0
  6
CONTINUOUS
 62
     3
 10
352.74999999999989
 20
272.31
 30
0.0
 11
355.14999999999992
 21
272.31
 31
0.0
  0
LINE
  5
15A
  8
HEIMEN0
  6
CONTINUOUS
 62
     3
 10
352.74999999999989
 20
267.68999999999988
 30
0.0
 11
355.14999999999992
 21
267.68999999999988
 31
0.0
  0
LINE
  5
15B
  8
HEIMEN0
  6
CONTINUOUS
 62
     3
 10
352.44999999999987
 20
272.31
 30
0.0
 11
352.44999999999987
 21
273.45499999999998
 31
0.0
  0
LINE
  5
15C
  8
HEIMEN0
  6
CONTINUOUS
 62
     3
 10
352.44999999999987
 20
266.54500000000002
 30
0.0
 11
352.44999999999987
 21
267.68999999999988
 31
0.0
  0
LINE
  5
15D
  8
HEIMEN0
  6
CONTINUOUS
 62
     3
 10
352.44999999999987
 20
267.68999999999988
 30
0.0
 11
352.44999999999987
 21
272.31
 31
0.0
  0
ARC
  5
15E
  8
HEIMEN0
  6
CONTINUOUS
 62
     3
 10
354.78504199999992
 20
266.54500000000002
 30
0.0
 40
2.3350419999999992
 50
150.63606499999989
 51
209.363935
  0
ARC
  5
15F
  8
HEIMEN0
  6
CONTINUOUS
 62
     3
 10
361.49349999999998
 20
270.0
 30
0.0
 40
9.0434999999999999
 50
165.20081099999999
 51
194.7991889999999
  0
ARC
  5
160
  8
HEIMEN0
  6
CONTINUOUS
 62
     3
 10
354.78504199999992
 20
273.45499999999998
 30
0.0
 40
2.3350419999999992
 50
150.63606499999989
 51
209.363935
  0
LINE
  5
161
  8
HEIMEN0
  6
CONTINUOUS
 62
     3
 10
280.0
 20
280.5
 30
0.0
 11
281.0
 21
281.49999999999989
 31
0.0
  0
LINE
  5
162
  8
HEIMEN0
  6
CONTINUOUS
 62
     3
 10
280.0
 20
259.5
 30
0.0
 11
281.0
 21
258.49999999999989
 31
0.0
  0
LINE
  5
163
  8
HEIMEN0
  6
CONTINUOUS
 62
     3
 10
519.0
 20
281.49999999999989
 30
0.0
 11
520.0
 21
280.5
 31
0.0
  0
LINE
  5
164
  8
HEIMEN0
  6
CONTINUOUS
 62
     3
 10
520.0
 20
259.5
 30
0.0
 11
519.0
 21
258.49999999999989
 31
0.0
  0
LINE
  5
165
  8
HEIMEN0
  6
CONTINUOUS
 62
     3
 10
447.35000000000002
 20
258.49999999999989
 30
0.0
 11
519.0
 21
258.49999999999989
 31
0.0
  0
LINE
  5
166
  8
HEIMEN0
  6
CONTINUOUS
 62
     3
 10
281.0
 20
281.49999999999989
 30
0.0
 11
352.64999999999992
 21
281.49999999999989
 31
0.0
  0
LINE
  5
167
  8
HEIMEN0
  6
CONTINUOUS
 62
     3
 10
447.35000000000002
 20
281.49999999999989
 30
0.0
 11
519.0
 21
281.49999999999989
 31
0.0
  0
LINE
  5
168
  8
HEIMEN0
  6
CONTINUOUS
 62
     3
 10
281.0
 20
258.49999999999989
 30
0.0
 11
343.94816999999989
 21
258.49999999999989
 31
0.0
  0
LINE
  5
169
  8
HEIMEN0
  6
CONTINUOUS
 62
     3
 10
347.72328599999992
 20
258.49999999999989
 30
0.0
 11
352.64999999999992
 21
258.49999999999989
 31
0.0
  0
LINE
  5
16A
  8
HEIMEN0
  6
CONTINUOUS
 62
     3
 10
447.35000000000002
 20
282.89999999999992
 30
0.0
 11
447.35000000000002
 21
257.04629199999999
 31
0.0
  0
LINE
  5
16B
  8
HEIMEN0
  6
CONTINUOUS
 62
     3
 10
444.85000000000002
 20
283.84883699999989
 30
0.0
 11
447.35000000000002
 21
282.95370800000001
 31
0.0
  0
LINE
  5
16C
  8
HEIMEN0
  6
CONTINUOUS
 62
     3
 10
444.85000000000002
 20
256.151163
 30
0.0
 11
447.35000000000002
 21
257.04629199999999
 31
0.0
  0
LINE
  5
16D
  8
HEIMEN1
  6
CONTINUOUS
 62
     3
 10
356.64999999999998
 20
293.10000000000002
 30
0.0
 11
356.64999999999998
 21
246.90000000000001
 31
0.0
  0
LINE
  5
16E
  8
HEIMEN0
  6
CONTINUOUS
 62
     3
 10
356.64999999999998
 20
246.90000000000001
 30
0.0
 11
355.14999999999992
 21
246.90000000000001
 31
0.0
  0
LINE
  5
16F
  8
HEIMEN0
  6
CONTINUOUS
 62
     3
 10
356.64999999999998
 20
293.10000000000002
 30
0.0
 11
355.14999999999992
 21
293.10000000000002
 31
0.0
  0
LINE
  5
170
  8
HEIMEN0
  6
CONTINUOUS
 62
     3
 10
355.14999999999992
 20
283.84883699999989
 30
0.0
 11
352.64999999999992
 21
282.95370800000001
 31
0.0
  0
LINE
  5
171
  8
HEIMEN0
  6
CONTINUOUS
 62
     3
 10
355.14999999999992
 20
256.151163
 30
0.0
 11
352.64999999999992
 21
257.04629199999999
 31
0.0
  0
LINE
  5
172
  8
HEIMEN0
  6
CONTINUOUS
 62
     3
 10
352.64999999999992
 20
282.89999999999992
 30
0.0
 11
352.64999999999992
 21
274.40052500000002
 31
0.0
  0
LINE
  5
173
  8
HEIMEN0
  6
CONTINUOUS
 62
     3
 10
352.64999999999992
 20
265.59947499999998
 30
0.0
 11
352.64999999999992
 21
257.04629199999999
 31
0.0
  0
LINE
  5
174
  8
HEIMEN1
  6
CONTINUOUS
 62
     3
 10
356.64999999999998
 20
293.10000000000002
 30
0.0
 11
356.64999999999998
 21
246.90000000000001
 31
0.0
  0
LINE
  5
175
  8
HEIMEN0
  6
CONTINUOUS
 62
     3
 10
444.55000000000001
 20
291.68000000000001
 30
0.0
 11
444.55000000000001
 21
289.72000000000003
 31
0.0
  0
LINE
  5
176
  8
HEIMEN0
  6
CONTINUOUS
 62
     3
 10
444.85000000000002
 20
291.68000000000001
 30
0.0
 11
444.55000000000001
 21
291.68000000000001
 31
0.0
  0
LINE
  5
177
  8
HEIMEN0
  6
CONTINUOUS
 62
     3
 10
444.85000000000002
 20
289.72000000000003
 30
0.0
 11
444.55000000000001
 21
289.72000000000003
 31
0.0
  0
LINE
  5
178
  8
HEIMEN0
  6
CONTINUOUS
 62
     3
 10
444.85000000000002
 20
293.10000000000002
 30
0.0
 11
444.85000000000002
 21
291.68000000000001
 31
0.0
  0
LINE
  5
179
  8
HEIMEN0
  6
CONTINUOUS
 62
     3
 10
444.55000000000001
 20
248.31999999999999
 30
0.0
 11
444.55000000000001
 21
250.28
 31
0.0
  0
LINE
  5
17A
  8
HEIMEN0
  6
CONTINUOUS
 62
     3
 10
444.85000000000002
 20
248.31999999999999
 30
0.0
 11
444.55000000000001
 21
248.31999999999999
 31
0.0
  0
LINE
  5
17B
  8
HEIMEN0
  6
CONTINUOUS
 62
     3
 10
444.85000000000002
 20
250.28
 30
0.0
 11
444.55000000000001
 21
250.28
 31
0.0
  0
LINE
  5
17C
  8
HEIMEN0
  6
CONTINUOUS
 62
     3
 10
444.85000000000002
 20
248.31999999999999
 30
0.0
 11
444.85000000000002
 21
246.90000000000001
 31
0.0
  0
LINE
  5
17D
  8
HEIMEN0
  6
CONTINUOUS
 62
     3
 10
444.85000000000002
 20
289.72000000000003
 30
0.0
 11
444.85000000000002
 21
250.28
 31
0.0
  0
LINE
  5
17E
  8
HEIMEN0
  6
CONTINUOUS
 62
     3
 10
355.44999999999987
 20
291.68000000000001
 30
0.0
 11
355.44999999999987
 21
289.72000000000003
 31
0.0
  0
LINE
  5
17F
  8
HEIMEN0
  6
CONTINUOUS
 62
     3
 10
355.14999999999992
 20
291.68000000000001
 30
0.0
 11
355.44999999999987
 21
291.68000000000001
 31
0.0
  0
LINE
  5
180
  8
HEIMEN0
  6
CONTINUOUS
 62
     3
 10
355.14999999999992
 20
289.72000000000003
 30
0.0
 11
355.44999999999987
 21
289.72000000000003
 31
0.0
  0
LINE
  5
181
  8
HEIMEN0
  6
CONTINUOUS
 62
     3
 10
355.44999999999987
 20
248.31999999999999
 30
0.0
 11
355.44999999999987
 21
250.28
 31
0.0
  0
LINE
  5
182
  8
HEIMEN0
  6
CONTINUOUS
 62
     3
 10
355.14999999999992
 20
248.31999999999999
 30
0.0
 11
355.44999999999987
 21
248.31999999999999
 31
0.0
  0
LINE
  5
183
  8
HEIMEN0
  6
CONTINUOUS
 62
     3
 10
355.14999999999992
 20
250.28
 30
0.0
 11
355.44999999999987
 21
250.28
 31
0.0
  0
LINE
  5
184
  8
HEIMEN0
  6
CONTINUOUS
 62
     3
 10
355.14999999999992
 20
293.10000000000002
 30
0.0
 11
355.14999999999992
 21
291.68000000000001
 31
0.0
  0
LINE
  5
185
  8
HEIMEN0
  6
CONTINUOUS
 62
     3
 10
355.14999999999992
 20
248.31999999999999
 30
0.0
 11
355.14999999999992
 21
246.90000000000001
 31
0.0
  0
LINE
  5
186
  8
HEIMEN0
  6
CONTINUOUS
 62
     3
 10
355.14999999999992
 20
289.72000000000003
 30
0.0
 11
355.14999999999992
 21
250.28
 31
0.0
  0
LINE
  5
187
  8
HEIMEN0
  6
CENTER
 10
421.63998099999992
 20
252.49999999999989
 30
0.0
 11
413.20179399999989
 21
252.49999999999989
 31
0.0
  0
LINE
  5
188
  8
HEIMEN0
  6
CENTER
 10
417.49999999999989
 20
248.14181400000001
 30
0.0
 11
417.49999999999989
 21
256.98829299999989
 31
0.0
  0
CIRCLE
  5
189
  8
HEIMEN0
  6
CONTINUOUS
 10
417.49999999999989
 20
252.49999999999989
 30
0.0
 40
3.0
  0
LINE
  5
18A
  8
HEIMEN0
  6
CENTER
 10
421.63998099999992
 20
287.5
 30
0.0
 11
413.20179399999989
 21
287.5
 31
0.0
  0
LINE
  5
18B
  8
HEIMEN0
  6
CENTER
 10
417.49999999999989
 20
291.85818599999988
 30
0.0
 11
417.49999999999989
 21
283.011707
 31
0.0
  0
CIRCLE
  5
18C
  8
HEIMEN0
  6
CONTINUOUS
 10
417.49999999999989
 20
287.5
 30
0.0
 40
3.0
  0
LINE
  5
18D
  8
HEIMEN0
  6
CENTER
 10
378.36001900000002
 20
252.49999999999989
 30
0.0
 11
386.79820599999999
 21
252.49999999999989
 31
0.0
  0
LINE
  5
18E
  8
HEIMEN0
  6
CENTER
 10
382.5
 20
248.14181400000001
 30
0.0
 11
382.5
 21
256.98829299999989
 31
0.0
  0
CIRCLE
  5
18F
  8
HEIMEN0
  6
CONTINUOUS
 10
382.5
 20
252.49999999999989
 30
0.0
 40
3.0
  0
LINE
  5
190
  8
HEIMEN0
  6
CENTER
 10
378.36001900000002
 20
287.5
 30
0.0
 11
386.79820599999999
 21
287.5
 31
0.0
  0
LINE
  5
191
  8
HEIMEN0
  6
CENTER
 10
382.5
 20
291.85818599999988
 30
0.0
 11
382.5
 21
283.011707
 31
0.0
  0
CIRCLE
  5
192
  8
HEIMEN0
  6
CONTINUOUS
 10
382.5
 20
287.5
 30
0.0
 40
3.0
  0
LINE
  5
193
  8
HEIMEN0
  6
CONTINUOUS
 62
     3
 10
367.64999999999992
 20
293.5
 30
0.0
 11
367.64999999999992
 21
246.49999999999989
 31
0.0
  0
LINE
  5
194
  8
HEIMEN0
  6
CONTINUOUS
 62
     3
 10
432.35000000000002
 20
293.5
 30
0.0
 11
432.35000000000002
 21
246.49999999999989
 31
0.0
  0
LINE
  5
195
  8
HEIMEN0
  6
CONTINUOUS
 62
     3
 10
368.14999999999992
 20
246.0
 30
0.0
 11
431.85000000000002
 21
246.0
 31
0.0
  0
LINE
  5
196
  8
HEIMEN0
  6
CONTINUOUS
 62
     3
 10
368.14999999999992
 20
294.0
 30
0.0
 11
431.85000000000002
 21
294.0
 31
0.0
  0
LINE
  5
197
  8
HEIMEN0
  6
CONTINUOUS
 62
     3
 10
431.85000000000002
 20
294.0
 30
0.0
 11
432.35000000000002
 21
293.5
 31
0.0
  0
LINE
  5
198
  8
HEIMEN0
  6
CONTINUOUS
 62
     3
 10
432.35000000000002
 20
246.49999999999989
 30
0.0
 11
431.85000000000002
 21
246.0
 31
0.0
  0
LINE
  5
199
  8
HEIMEN0
  6
CONTINUOUS
 62
     3
 10
367.64999999999992
 20
246.49999999999989
 30
0.0
 11
368.14999999999992
 21
246.0
 31
0.0
  0
LINE
  5
19A
  8
HEIMEN0
  6
CONTINUOUS
 62
     3
 10
367.64999999999992
 20
293.5
 30
0.0
 11
368.14999999999992
 21
294.0
 31
0.0
  0
LINE
  5
19B
  8
HEIMEN0
  6
CONTINUOUS
 62
     3
 10
432.35000000000002
 20
266.0
 30
0.0
 11
367.64999999999992
 21
266.0
 31
0.0
  0
LINE
  5
19C
  8
HEIMEN0
  6
CONTINUOUS
 62
     3
 10
432.35000000000002
 20
274.0
 30
0.0
 11
367.64999999999992
 21
274.0
 31
0.0
  0
LINE
  5
19D
  8
HEIMEN0
  6
CONTINUOUS
 62
     3
 10
432.35000000000002
 20
258.0
 30
0.0
 11
367.64999999999992
 21
258.0
 31
0.0
  0
LINE
  5
19E
  8
HEIMEN0
  6
CONTINUOUS
 62
     3
 10
432.35000000000002
 20
282.0
 30
0.0
 11
367.64999999999992
 21
282.0
 31
0.0
  0
LINE
  5
19F
  8
HEIMEN0
  6
CONTINUOUS
 62
     3
 10
432.35000000000002
 20
293.5
 30
0.0
 11
443.35000000000002
 21
293.10000000000002
 31
0.0
  0
LINE
  5
1A0
  8
HEIMEN0
  6
CONTINUOUS
 62
     3
 10
432.35000000000002
 20
246.49999999999989
 30
0.0
 11
443.35000000000002
 21
246.90000000000001
 31
0.0
  0
LINE
  5
1A1
  8
HEIMEN0
  6
CONTINUOUS
 62
     3
 10
356.64999999999998
 20
293.10000000000002
 30
0.0
 11
367.64999999999992
 21
293.5
 31
0.0
  0
LINE
  5
1A2
  8
HEIMEN0
  6
CONTINUOUS
 62
     3
 10
356.64999999999998
 20
246.90000000000001
 30
0.0
 11
367.64999999999992
 21
246.49999999999989
 31
0.0
  0
ARC
  5
1A3
  8
HEIMEN0
  6
CONTINUOUS
 62
     3
 10
359.75
 20
290.69999999999999
 30
0.0
 40
6.0
 50
164.5572839999999
 51
195.44271599999999
  0
LINE
  5
1A4
  8
HEIMEN0
  6
CONTINUOUS
 62
     3
 10
354.66800999999992
 20
292.88158499999997
 30
0.0
 11
355.14999999999992
 21
292.92375299999992
 31
0.0
  0
LINE
  5
1A5
  8
HEIMEN0
  6
CONTINUOUS
 62
     3
 10
354.66800999999992
 20
288.518415
 30
0.0
 11
355.14999999999992
 21
288.476247
 31
0.0
  0
ARC
  5
1A6
  8
HEIMEN0
  6
CONTINUOUS
 62
     3
 10
354.73773499999999
 20
292.08462900000001
 30
0.0
 40
0.8
 50
95.0
 51
164.5572839999999
  0
ARC
  5
1A7
  8
HEIMEN0
  6
CONTINUOUS
 62
     3
 10
354.73773499999999
 20
289.31537099999991
 30
0.0
 40
0.8
 50
195.44271599999999
 51
265.0
  0
ARC
  5
1A8
  8
HEIMEN0
  6
CONTINUOUS
 62
     3
 10
359.75
 20
249.30000000000001
 30
0.0
 40
6.0
 50
164.5572839999999
 51
195.44271599999999
  0
LINE
  5
1A9
  8
HEIMEN0
  6
CONTINUOUS
 62
     3
 10
354.66800999999992
 20
251.481585
 30
0.0
 11
355.14999999999992
 21
251.52375299999991
 31
0.0
  0
LINE
  5
1AA
  8
HEIMEN0
  6
CONTINUOUS
 62
     3
 10
354.66800999999992
 20
247.118415
 30
0.0
 11
355.14999999999992
 21
247.076247
 31
0.0
  0
ARC
  5
1AB
  8
HEIMEN0
  6
CONTINUOUS
 62
     3
 10
354.73773499999999
 20
250.68462899999989
 30
0.0
 40
0.8
 50
95.0
 51
164.5572839999999
  0
ARC
  5
1AC
  8
HEIMEN0
  6
CONTINUOUS
 62
     3
 10
354.73773499999999
 20
247.91537099999991
 30
0.0
 40
0.8
 50
195.44271599999999
 51
265.0
  0
ARC
  5
1AD
  8
HEIMEN0
  6
CONTINUOUS
 62
     3
 10
440.24999999999989
 20
290.69999999999999
 30
0.0
 40
6.0
 50
344.55728399999998
 51
15.442716000000001
  0
LINE
  5
1AE
  8
HEIMEN0
  6
CONTINUOUS
 62
     3
 10
445.33199000000002
 20
288.518415
 30
0.0
 11
444.85000000000002
 21
288.476247
 31
0.0
  0
LINE
  5
1AF
  8
HEIMEN0
  6
CONTINUOUS
 62
     3
 10
445.33199000000002
 20
292.88158499999997
 30
0.0
 11
444.85000000000002
 21
292.92375299999992
 31
0.0
  0
ARC
  5
1B0
  8
HEIMEN0
  6
CONTINUOUS
 62
     3
 10
445.26226500000001
 20
289.31537099999991
 30
0.0
 40
0.8
 50
275.0
 51
344.55728399999998
  0
ARC
  5
1B1
  8
HEIMEN0
  6
CONTINUOUS
 62
     3
 10
445.26226500000001
 20
292.08462900000001
 30
0.0
 40
0.8
 50
15.442716000000001
 51
85.0
  0
ARC
  5
1B2
  8
HEIMEN0
  6
CONTINUOUS
 62
     3
 10
440.24999999999989
 20
249.30000000000001
 30
0.0
 40
6.0
 50
344.55728399999998
 51
15.442716000000001
  0
LINE
  5
1B3
  8
HEIMEN0
  6
CONTINUOUS
 62
     3
 10
445.33199000000002
 20
247.118415
 30
0.0
 11
444.85000000000002
 21
247.076247
 31
0.0
  0
LINE
  5
1B4
  8
HEIMEN0
  6
CONTINUOUS
 62
     3
 10
445.33199000000002
 20
251.481585
 30
0.0
 11
444.85000000000002
 21
251.52375299999991
 31
0.0
  0
ARC
  5
1B5
  8
HEIMEN0
  6
CONTINUOUS
 62
     3
 10
445.26226500000001
 20
247.91537099999991
 30
0.0
 40
0.8
 50
275.0
 51
344.55728399999998
  0
ARC
  5
1B6
  8
HEIMEN0
  6
CONTINUOUS
 62
     3
 10
445.26226500000001
 20
250.68462899999989
 30
0.0
 40
0.8
 50
15.442716000000001
 51
85.0
  0
CIRCLE
  5
1B7
  8
HEIMEN0
  6
CONTINUOUS
 62
     3
 10
417.49999999999989
 20
252.49999999999989
 30
0.0
 40
2.5499999999999989
  0
CIRCLE
  5
1B8
  8
HEIMEN0
  6
CONTINUOUS
 62
     3
 10
382.5
 20
252.49999999999989
 30
0.0
 40
2.5499999999999989
  0
CIRCLE
  5
1B9
  8
HEIMEN0
  6
CONTINUOUS
 62
     3
 10
417.49999999999989
 20
287.5
 30
0.0
 40
2.5499999999999989
  0
CIRCLE
  5
1BA
  8
HEIMEN0
  6
CONTINUOUS
 62
     3
 10
382.5
 20
287.5
 30
0.0
 40
2.5499999999999989
  0
LINE
  5
1BB
  8
SOKUMEN1
  6
CONTINUOUS
 62
     3
 10
352.67595299999999
 20
169.5
 30
0.0
 11
355.44999999999987
 21
169.5
 31
0.0
  0
LINE
  5
1BC
  8
SOKUMEN1
  6
CONTINUOUS
 62
     3
 10
342.95890600000001
 20
169.6854459999999
 30
0.0
 11
342.897673
 21
169.6999999999999
 31
0.0
  0
ARC
  5
1BD
  8
SOKUMEN1
  6
CONTINUOUS
 62
     3
 10
342.88212499999992
 20
169.53304900000001
 30
0.0
 40
0.170646
 50
39.425148
 51
63.260082999999987
  0
ARC
  5
1BE
  8
SOKUMEN1
  6
CONTINUOUS
 62
     3
 10
342.857776
 20
169.51303100000001
 30
0.0
 40
0.202167
 50
18.805938999999999
 51
39.425148
  0
ARC
  5
1BF
  8
SOKUMEN1
  6
CONTINUOUS
 62
     3
 10
342.81951099999992
 20
169.5
 30
0.0
 40
0.242591
 50
0.0
 51
18.805938999999999
  0
ARC
  5
1C0
  8
SOKUMEN1
  6
CONTINUOUS
 62
     3
 10
342.81951099999992
 20
169.5
 30
0.0
 40
0.242591
 50
341.19406099999992
 51
0.0
  0
ARC
  5
1C1
  8
SOKUMEN1
  6
CONTINUOUS
 62
     3
 10
342.857776
 20
169.4869689999999
 30
0.0
 40
0.202167
 50
320.57485200000002
 51
341.19406099999992
  0
ARC
  5
1C2
  8
SOKUMEN1
  6
CONTINUOUS
 62
     3
 10
342.88212499999992
 20
169.46695099999991
 30
0.0
 40
0.170646
 50
296.73991699999988
 51
320.57485200000002
  0
LINE
  5
1C3
  8
SOKUMEN1
  6
CONTINUOUS
 62
     3
 10
342.897673
 20
169.30000000000001
 30
0.0
 11
342.95890600000001
 21
169.31455399999999
 31
0.0
  0
LINE
  5
1C4
  8
SOKUMEN1
  6
CONTINUOUS
 62
     3
 10
342.83643999999993
 20
169.31455399999999
 30
0.0
 11
342.897673
 21
169.30000000000001
 31
0.0
  0
ARC
  5
1C5
  8
SOKUMEN1
  6
CONTINUOUS
 62
     3
 10
342.91322000000002
 20
169.46695099999991
 30
0.0
 40
0.170646
 50
219.42514800000001
 51
243.26008300000001
  0
ARC
  5
1C6
  8
SOKUMEN1
  6
CONTINUOUS
 62
     3
 10
342.937569
 20
169.4869689999999
 30
0.0
 40
0.202167
 50
198.805939
 51
219.42514800000001
  0
ARC
  5
1C7
  8
SOKUMEN1
  6
CONTINUOUS
 62
     3
 10
342.97583500000002
 20
169.5
 30
0.0
 40
0.242591
 50
180.0
 51
198.805939
  0
LINE
  5
1C8
  8
SOKUMEN1
  6
CONTINUOUS
 62
     3
 10
342.74274600000001
 20
169.57201000000001
 30
0.0
 11
342.73324400000001
 21
169.5
 31
0.0
  0
ARC
  5
1C9
  8
SOKUMEN1
  6
CONTINUOUS
 62
     3
 10
342.95286499999992
 20
169.50045600000001
 30
0.0
 40
0.221969
 50
140.57485199999991
 51
161.19406099999989
  0
ARC
  5
1CA
  8
SOKUMEN1
  6
CONTINUOUS
 62
     3
 10
342.91322000000002
 20
169.53304900000001
 30
0.0
 40
0.170646
 50
116.73991699999991
 51
140.57485199999991
  0
LINE
  5
1CB
  8
SOKUMEN1
  6
CONTINUOUS
 62
     3
 10
342.897673
 20
169.6999999999999
 30
0.0
 11
342.83643999999993
 21
169.6854459999999
 31
0.0
  0
ARC
  5
1CC
  8
SOKUMEN1
  6
CONTINUOUS
 62
     3
 10
343.39767299999988
 20
170.81360900000001
 30
0.0
 40
1.086390999999999
 50
58.10907499999999
 51
90.0
  0
ARC
  5
1CD
  8
SOKUMEN1
  6
CONTINUOUS
 62
     3
 10
343.00613599999991
 20
170.18435700000001
 30
0.0
 40
1.8275110000000001
 50
33.651584
 51
58.10907499999999
  0
ARC
  5
1CE
  8
SOKUMEN1
  6
CONTINUOUS
 62
     3
 10
342.38504699999999
 20
169.77090000000001
 30
0.0
 40
2.5736330000000001
 50
15.415698000000001
 51
33.651584
  0
ARC
  5
1CF
  8
SOKUMEN1
  6
CONTINUOUS
 62
     3
 10
341.402602
 20
169.5
 30
0.0
 40
3.592743
 50
0.0
 51
15.415698000000001
  0
ARC
  5
1D0
  8
SOKUMEN1
  6
CONTINUOUS
 62
     3
 10
341.402602
 20
169.5
 30
0.0
 40
3.592743
 50
344.58430199999992
 51
0.0
  0
ARC
  5
1D1
  8
SOKUMEN1
  6
CONTINUOUS
 62
     3
 10
342.38504699999999
 20
169.2290999999999
 30
0.0
 40
2.5736330000000001
 50
326.34841599999999
 51
344.58430199999992
  0
ARC
  5
1D2
  8
SOKUMEN1
  6
CONTINUOUS
 62
     3
 10
343.00613599999991
 20
168.81564299999999
 30
0.0
 40
1.8275110000000001
 50
301.89092499999998
 51
326.34841599999999
  0
ARC
  5
1D3
  8
SOKUMEN1
  6
CONTINUOUS
 62
     3
 10
343.39767299999988
 20
168.1863909999999
 30
0.0
 40
1.086390999999999
 50
270.0
 51
301.89092499999998
  0
ARC
  5
1D4
  8
SOKUMEN1
  6
CONTINUOUS
 62
     3
 10
343.39767299999988
 20
168.1863909999999
 30
0.0
 40
1.086390999999999
 50
238.1090749999999
 51
270.0
  0
ARC
  5
1D5
  8
SOKUMEN1
  6
CONTINUOUS
 62
     3
 10
343.78920899999991
 20
168.81564299999999
 30
0.0
 40
1.8275110000000001
 50
213.6515839999999
 51
238.1090749999999
  0
ARC
  5
1D6
  8
SOKUMEN1
  6
CONTINUOUS
 62
     3
 10
344.41029800000001
 20
169.2290999999999
 30
0.0
 40
2.5736330000000001
 50
195.41569799999999
 51
213.6515839999999
  0
ARC
  5
1D7
  8
SOKUMEN1
  6
CONTINUOUS
 62
     3
 10
345.392743
 20
169.5
 30
0.0
 40
3.592743
 50
180.0
 51
195.41569799999999
  0
ARC
  5
1D8
  8
SOKUMEN1
  6
CONTINUOUS
 62
     3
 10
344.48349799999988
 20
169.65885599999999
 30
0.0
 40
2.688196
 50
164.58430200000001
 51
183.38780399999999
  0
ARC
  5
1D9
  8
SOKUMEN1
  6
CONTINUOUS
 62
     3
 10
344.64586299999991
 20
169.61408499999999
 30
0.0
 40
2.856619999999999
 50
146.3484159999999
 51
164.58430200000001
  0
ARC
  5
1DA
  8
SOKUMEN1
  6
CONTINUOUS
 62
     3
 10
343.78920899999991
 20
170.18435700000001
 30
0.0
 40
1.8275110000000001
 50
121.890925
 51
146.3484159999999
  0
ARC
  5
1DB
  8
SOKUMEN1
  6
CONTINUOUS
 62
     3
 10
343.39767299999988
 20
170.81360900000001
 30
0.0
 40
1.086390999999999
 50
90.0
 51
121.890925
  0
ARC
  5
1DC
  8
SOKUMEN1
  6
CONTINUOUS
 62
     3
 10
344.48814800000002
 20
170.5945759999999
 30
0.0
 40
2.2054239999999998
 50
63.046973000000001
 51
90.0
  0
ARC
  5
1DD
  8
SOKUMEN1
  6
CONTINUOUS
 62
     3
 10
344.21948300000003
 20
170.06622200000001
 30
0.0
 40
2.798162
 50
39.165920999999997
 51
63.046973000000001
  0
ARC
  5
1DE
  8
SOKUMEN1
  6
CONTINUOUS
 62
     3
 10
343.798517
 20
169.72330700000001
 30
0.0
 40
3.3411199999999992
 50
18.645129999999991
 51
39.165920999999997
  0
ARC
  5
1DF
  8
SOKUMEN1
  6
CONTINUOUS
 62
     3
 10
343.13669800000002
 20
169.5
 30
0.0
 40
4.0395969999999997
 50
0.0
 51
18.645129999999991
  0
ARC
  5
1E0
  8
SOKUMEN1
  6
CONTINUOUS
 62
     3
 10
343.13669800000002
 20
169.5
 30
0.0
 40
4.0395969999999997
 50
341.35487000000001
 51
0.0
  0
ARC
  5
1E1
  8
SOKUMEN1
  6
CONTINUOUS
 62
     3
 10
343.798517
 20
169.27669299999991
 30
0.0
 40
3.3411199999999992
 50
320.83407899999997
 51
341.35487000000001
  0
ARC
  5
1E2
  8
SOKUMEN1
  6
CONTINUOUS
 62
     3
 10
344.21948300000003
 20
168.9337779999999
 30
0.0
 40
2.798162
 50
296.95302700000002
 51
320.83407899999997
  0
ARC
  5
1E3
  8
SOKUMEN1
  6
CONTINUOUS
 62
     3
 10
344.48814800000002
 20
168.40542400000001
 30
0.0
 40
2.2054239999999998
 50
270.0
 51
296.95302700000002
  0
ARC
  5
1E4
  8
SOKUMEN1
  6
CONTINUOUS
 62
     3
 10
344.48814800000002
 20
168.40542400000001
 30
0.0
 40
2.2054239999999998
 50
243.04697299999989
 51
270.0
  0
ARC
  5
1E5
  8
SOKUMEN1
  6
CONTINUOUS
 62
     3
 10
344.75681200000002
 20
168.9337779999999
 30
0.0
 40
2.798162
 50
219.165921
 51
243.04697299999989
  0
ARC
  5
1E6
  8
SOKUMEN1
  6
CONTINUOUS
 62
     3
 10
345.17777799999999
 20
169.27669299999991
 30
0.0
 40
3.3411199999999992
 50
198.64512999999999
 51
219.165921
  0
ARC
  5
1E7
  8
SOKUMEN1
  6
CONTINUOUS
 62
     3
 10
345.83959700000003
 20
169.5
 30
0.0
 40
4.0395969999999997
 50
180.0
 51
198.64512999999999
  0
ARC
  5
1E8
  8
SOKUMEN1
  6
CONTINUOUS
 62
     3
 10
344.87973099999988
 20
169.70214699999991
 30
0.0
 40
3.0863580000000002
 50
161.35487000000001
 51
183.75538499999999
  0
ARC
  5
1E9
  8
SOKUMEN1
  6
CONTINUOUS
 62
     3
 10
345.43287400000003
 20
169.51550900000001
 30
0.0
 40
3.6701399999999991
 50
140.834079
 51
161.35487000000001
  0
ARC
  5
1EA
  8
SOKUMEN1
  6
CONTINUOUS
 62
     3
 10
344.75681200000002
 20
170.06622200000001
 30
0.0
 40
2.798162
 50
116.95302700000001
 51
140.834079
  0
ARC
  5
1EB
  8
SOKUMEN1
  6
CONTINUOUS
 62
     3
 10
344.48814800000002
 20
170.5945759999999
 30
0.0
 40
2.2054239999999998
 50
90.0
 51
116.95302700000001
  0
LINE
  5
1EC
  8
SOKUMEN1
  6
CONTINUOUS
 62
     3
 10
348.53393399999987
 20
169.5
 30
0.0
 11
349.71947299999988
 21
169.5
 31
0.0
  0
ARC
  5
1ED
  8
SOKUMEN1
  6
CONTINUOUS
 62
     3
 10
348.44999999999999
 20
169.5
 30
0.0
 40
4.0
 50
90.0
 51
124.45572799999999
  0
ARC
  5
1EE
  8
SOKUMEN1
  6
CONTINUOUS
 62
     3
 10
348.44999999999999
 20
169.5
 30
0.0
 40
4.0
 50
235.54320200000001
 51
270.0
  0
LINE
  5
1EF
  8
SOKUMEN1
  6
CONTINUOUS
 62
     3
 10
348.44999999999999
 20
165.5
 30
0.0
 11
355.14999999999992
 21
165.5
 31
0.0
  0
LINE
  5
1F0
  8
SOKUMEN1
  6
CONTINUOUS
 62
     3
 10
348.44999999999999
 20
173.5
 30
0.0
 11
353.82153599999992
 21
173.5
 31
0.0
  0
LINE
  5
1F1
  8
SOKUMEN1
  6
CONTINUOUS
 62
     3
 10
352.32239900000002
 20
173.14644699999991
 30
0.0
 11
352.67595299999999
 21
173.5
 31
0.0
  0
ARC
  5
1F2
  8
SOKUMEN1
  6
CONTINUOUS
 62
     3
 10
352.67595299999999
 20
172.79289299999999
 30
0.0
 40
0.5
 50
135.0
 51
180.0
  0
LINE
  5
1F3
  8
SOKUMEN1
  6
CONTINUOUS
 62
     3
 10
352.17595299999999
 20
166.20710700000001
 30
0.0
 11
352.17595299999999
 21
168.38196600000001
 31
0.0
  0
LINE
  5
1F4
  8
SOKUMEN1
  6
CONTINUOUS
 62
     3
 10
352.32239900000002
 20
165.85355299999989
 30
0.0
 11
352.67595299999999
 21
165.5
 31
0.0
  0
LINE
  5
1F5
  8
SOKUMEN1
  6
CONTINUOUS
 62
     3
 10
352.67595299999999
 20
169.5
 30
0.0
 11
352.22873900000002
 21
168.60557299999991
 31
0.0
  0
ARC
  5
1F6
  8
SOKUMEN1
  6
CONTINUOUS
 62
     3
 10
352.67595299999999
 20
168.38196600000001
 30
0.0
 40
0.5
 50
153.4349489999999
 51
180.0
  0
ARC
  5
1F7
  8
SOKUMEN1
  6
CONTINUOUS
 62
     3
 10
352.67595299999999
 20
170.61803399999991
 30
0.0
 40
0.5
 50
180.0
 51
206.56505100000001
  0
LINE
  5
1F8
  8
SOKUMEN1
  6
CONTINUOUS
 62
     3
 10
352.67595299999999
 20
169.5
 30
0.0
 11
352.22873900000002
 21
170.39442700000001
 31
0.0
  0
LINE
  5
1F9
  8
SOKUMEN1
  6
CONTINUOUS
 62
     3
 10
352.17595299999999
 20
173.5
 30
0.0
 11
352.17595299999999
 21
165.5
 31
0.0
  0
ARC
  5
1FA
  8
SOKUMEN1
  6
CONTINUOUS
 62
     3
 10
352.67595299999999
 20
166.20710700000001
 30
0.0
 40
0.5
 50
180.0
 51
225.0
  0
LINE
  5
1FB
  8
SOKUMEN1
  6
CONTINUOUS
 62
     3
 10
349.71947299999988
 20
169.5
 30
0.0
 11
348.53636599999987
 21
166.36872
 31
0.0
  0
ARC
  5
1FC
  8
SOKUMEN1
  6
CONTINUOUS
 62
     3
 10
350.95727399999998
 20
166.85001699999989
 30
0.0
 40
3.5909589999999989
 50
132.44210699999991
 51
190.7518989999999
  0
LINE
  5
1FD
  8
SOKUMEN1
  6
CONTINUOUS
 62
     3
 10
344.823148
 20
166.22559199999989
 30
0.0
 11
347.42935699999992
 21
166.18010000000001
 31
0.0
  0
LINE
  5
1FE
  8
SOKUMEN1
  6
CONTINUOUS
 62
     3
 10
347.42935699999992
 20
166.18010000000001
 30
0.0
 11
348.53636599999987
 21
166.36872
 31
0.0
  0
LINE
  5
1FF
  8
SOKUMEN1
  6
CONTINUOUS
 62
     3
 10
347.42935699999992
 20
172.819941
 30
0.0
 11
348.53636599999987
 21
172.6313209999999
 31
0.0
  0
ARC
  5
200
  8
SOKUMEN1
  6
CONTINUOUS
 62
     3
 10
350.95727399999998
 20
172.150024
 30
0.0
 40
3.5909589999999989
 50
169.24810099999991
 51
227.55886699999999
  0
LINE
  5
201
  8
SOKUMEN1
  6
CONTINUOUS
 62
     3
 10
349.71948900000001
 20
169.5
 30
0.0
 11
348.53636599999987
 21
172.6313209999999
 31
0.0
  0
LINE
  5
202
  8
SOKUMEN1
  6
CONTINUOUS
 62
     3
 10
344.82290699999999
 20
172.7744449999999
 30
0.0
 11
347.42935699999992
 21
172.819941
 31
0.0
  0
LINE
  5
203
  8
SOKUMEN1
  6
CONTINUOUS
 62
     3
 10
445.14999999999998
 20
149.5
 30
0.0
 11
445.14999999999998
 21
146.80000000000001
 31
0.0
  0
LINE
  5
204
  8
SOKUMEN1
  6
CONTINUOUS
 62
     3
 10
355.14999999999992
 20
149.5
 30
0.0
 11
352.64999999999992
 21
149.5
 31
0.0
  0
LINE
  5
205
  8
SOKUMEN1
  6
CONTINUOUS
 62
     3
 10
281.0
 20
162.0
 30
0.0
 11
352.64999999999992
 21
162.0
 31
0.0
  0
LINE
  5
206
  8
SOKUMEN1
  6
CONTINUOUS
 62
     3
 10
354.85000000000002
 20
146.80000000000001
 30
0.0
 11
445.14999999999998
 21
146.80000000000001
 31
0.0
  0
LINE
  5
207
  8
SOKUMEN1
  6
CONTINUOUS
 62
     3
 10
280.0
 20
141.0
 30
0.0
 11
281.0
 21
140.0
 31
0.0
  0
LINE
  5
208
  8
SOKUMEN1
  6
CONTINUOUS
 62
     3
 10
355.14999999999992
 20
149.5
 30
0.0
 11
447.35000000000002
 21
149.5
 31
0.0
  0
LINE
  5
209
  8
SOKUMEN1
  6
CENTER
 10
338.90692200000001
 20
169.5
 30
0.0
 11
359.50714299999999
 21
169.5
 31
0.0
  0
LINE
  5
20A
  8
SOKUMEN1
  6
CONTINUOUS
 62
     3
 10
520.0
 20
141.0
 30
0.0
 11
519.0
 21
140.0
 31
0.0
  0
LINE
  5
20B
  8
SOKUMEN1
  6
CONTINUOUS
 62
     3
 10
519.0
 20
162.0
 30
0.0
 11
520.0
 21
161.0
 31
0.0
  0
LINE
  5
20C
  8
SOKUMEN1
  6
CONTINUOUS
 62
     3
 10
443.35000000000002
 20
149.5
 30
0.0
 11
443.35000000000002
 21
175.0
 31
0.0
  0
LINE
  5
20D
  8
SOKUMEN1
  6
CONTINUOUS
 62
     3
 10
444.85000000000002
 20
175.0
 30
0.0
 11
443.35000000000002
 21
175.0
 31
0.0
  0
LINE
  5
20E
  8
SOKUMEN1
  6
DASHED
 10
306.49999999999989
 20
140.5
 30
0.0
 11
306.49999999999989
 21
153.0
 31
0.0
  0
LINE
  5
20F
  8
SOKUMEN1
  6
DASHED
 10
313.5
 20
153.0
 30
0.0
 11
313.5
 21
140.5
 31
0.0
  0
LINE
  5
210
  8
SOKUMEN1
  6
DASHED
 10
315.5
 20
153.0
 30
0.0
 11
315.5
 21
162.0
 31
0.0
  0
LINE
  5
211
  8
SOKUMEN1
  6
DASHED
 10
304.49999999999989
 20
153.0
 30
0.0
 11
315.5
 21
153.0
 31
0.0
  0
LINE
  5
212
  8
SOKUMEN1
  6
DASHED
 10
304.49999999999989
 20
162.0
 30
0.0
 11
304.49999999999989
 21
153.0
 31
0.0
  0
LINE
  5
213
  8
SOKUMEN1
  6
CONTINUOUS
 62
     3
 10
281.0
 20
162.0
 30
0.0
 11
280.0
 21
161.0
 31
0.0
  0
LINE
  5
214
  8
SOKUMEN1
  6
CONTINUOUS
 62
     3
 10
520.0
 20
161.0
 30
0.0
 11
520.0
 21
141.0
 31
0.0
  0
LINE
  5
215
  8
SOKUMEN1
  6
CONTINUOUS
 62
     3
 10
280.0
 20
161.0
 30
0.0
 11
280.0
 21
141.0
 31
0.0
  0
LINE
  5
216
  8
SOKUMEN1
  6
CONTINUOUS
 62
     3
 10
281.0
 20
140.0
 30
0.0
 11
519.0
 21
140.0
 31
0.0
  0
LINE
  5
217
  8
SOKUMEN1
  6
CONTINUOUS
 62
     3
 10
447.35000000000002
 20
151.0
 30
0.0
 11
520.0
 21
151.0
 31
0.0
  0
LINE
  5
218
  8
SOKUMEN1
  6
CONTINUOUS
 62
     3
 10
447.35000000000002
 20
153.2715
 30
0.0
 11
520.0
 21
153.2715
 31
0.0
  0
LINE
  5
219
  8
SOKUMEN1
  6
CONTINUOUS
 62
     3
 10
447.35000000000002
 20
154.80000000000001
 30
0.0
 11
520.0
 21
154.80000000000001
 31
0.0
  0
LINE
  5
21A
  8
SOKUMEN1
  6
CONTINUOUS
 62
     3
 10
447.35000000000002
 20
157.1999999999999
 30
0.0
 11
520.0
 21
157.1999999999999
 31
0.0
  0
LINE
  5
21B
  8
SOKUMEN1
  6
CONTINUOUS
 62
     3
 10
447.35000000000002
 20
158.7285
 30
0.0
 11
520.0
 21
158.7285
 31
0.0
  0
LINE
  5
21C
  8
SOKUMEN1
  6
CONTINUOUS
 62
     3
 10
447.35000000000002
 20
162.0
 30
0.0
 11
519.0
 21
162.0
 31
0.0
  0
LINE
  5
21D
  8
SOKUMEN1
  6
CENTER
 10
310.0
 20
164.71788099999989
 30
0.0
 11
310.0
 21
136.745723
 31
0.0
  0
LINE
  5
21E
  8
SOKUMEN1
  6
CONTINUOUS
 62
     3
 10
280.0
 20
158.7285
 30
0.0
 11
352.64999999999992
 21
158.7285
 31
0.0
  0
LINE
  5
21F
  8
SOKUMEN1
  6
CONTINUOUS
 62
     3
 10
280.0
 20
157.1999999999999
 30
0.0
 11
352.64999999999992
 21
157.1999999999999
 31
0.0
  0
LINE
  5
220
  8
SOKUMEN1
  6
CONTINUOUS
 62
     3
 10
280.0
 20
154.80000000000001
 30
0.0
 11
352.64999999999992
 21
154.80000000000001
 31
0.0
  0
LINE
  5
221
  8
SOKUMEN1
  6
CONTINUOUS
 62
     3
 10
280.0
 20
153.2715
 30
0.0
 11
352.64999999999992
 21
153.2715
 31
0.0
  0
LINE
  5
222
  8
SOKUMEN1
  6
CONTINUOUS
 62
     3
 10
280.0
 20
151.0
 30
0.0
 11
352.64999999999992
 21
151.0
 31
0.0
  0
LINE
  5
223
  8
SOKUMEN1
  6
CONTINUOUS
 62
     3
 10
280.0
 20
145.05555599999991
 30
0.0
 11
520.0
 21
145.05555599999991
 31
0.0
  0
LINE
  5
224
  8
SOKUMEN0
  6
CONTINUOUS
 62
     3
 10
440.35000000000002
 20
155.1999999999999
 30
0.0
 11
440.35000000000002
 21
156.80000000000001
 31
0.0
  0
LINE
  5
225
  8
SOKUMEN0
  6
CONTINUOUS
 62
     3
 10
359.64999999999992
 20
155.1999999999999
 30
0.0
 11
359.64999999999992
 21
156.80000000000001
 31
0.0
  0
LINE
  5
226
  8
SOKUMEN0
  6
CONTINUOUS
 62
     3
 10
356.64999999999998
 20
156.80000000000001
 30
0.0
 11
359.64999999999992
 21
156.80000000000001
 31
0.0
  0
LINE
  5
227
  8
SOKUMEN0
  6
CONTINUOUS
 62
     3
 10
440.35000000000002
 20
156.80000000000001
 30
0.0
 11
443.35000000000002
 21
156.80000000000001
 31
0.0
  0
LINE
  5
228
  8
SOKUMEN0
  6
CONTINUOUS
 62
     3
 10
356.64999999999998
 20
155.1999999999999
 30
0.0
 11
359.64999999999992
 21
155.1999999999999
 31
0.0
  0
LINE
  5
229
  8
SOKUMEN0
  6
CONTINUOUS
 62
     3
 10
440.35000000000002
 20
155.1999999999999
 30
0.0
 11
443.35000000000002
 21
155.1999999999999
 31
0.0
  0
LINE
  5
22A
  8
SOKUMEN0
  6
CONTINUOUS
 62
     3
 10
378.75
 20
148.5
 30
0.0
 11
378.75
 21
146.80000000000001
 31
0.0
  0
LINE
  5
22B
  8
SOKUMEN0
  6
CONTINUOUS
 62
     3
 10
372.25
 20
148.5
 30
0.0
 11
372.25
 21
146.80000000000001
 31
0.0
  0
LINE
  5
22C
  8
SOKUMEN0
  6
CONTINUOUS
 62
     3
 10
372.75
 20
148.0
 30
0.0
 11
378.25
 21
148.0
 31
0.0
  0
LINE
  5
22D
  8
SOKUMEN0
  6
CONTINUOUS
 62
     3
 10
378.25
 20
148.5
 30
0.0
 11
378.25
 21
146.80000000000001
 31
0.0
  0
LINE
  5
22E
  8
SOKUMEN0
  6
CONTINUOUS
 62
     3
 10
372.75
 20
148.5
 30
0.0
 11
372.75
 21
146.80000000000001
 31
0.0
  0
LINE
  5
22F
  8
SOKUMEN0
  6
CONTINUOUS
 62
     3
 10
447.35000000000002
 20
149.5
 30
0.0
 11
447.35000000000002
 21
163.40000000000001
 31
0.0
  0
LINE
  5
230
  8
SOKUMEN0
  6
CONTINUOUS
 62
     3
 10
444.85000000000002
 20
164.29513
 30
0.0
 11
447.35000000000002
 21
163.40000000000001
 31
0.0
  0
LINE
  5
231
  8
SOKUMEN1
  6
CONTINUOUS
 62
     3
 10
354.85000000000002
 20
149.5
 30
0.0
 11
354.85000000000002
 21
146.80000000000001
 31
0.0
  0
LINE
  5
232
  8
SOKUMEN1
  6
CONTINUOUS
 62
     3
 10
356.64999999999998
 20
149.5
 30
0.0
 11
356.64999999999998
 21
175.0
 31
0.0
  0
LINE
  5
233
  8
SOKUMEN1
  6
CONTINUOUS
 62
     3
 10
355.14999999999992
 20
175.0
 30
0.0
 11
356.64999999999998
 21
175.0
 31
0.0
  0
LINE
  5
234
  8
SOKUMEN0
  6
CONTINUOUS
 62
     3
 10
352.64999999999992
 20
149.5
 30
0.0
 11
352.64999999999992
 21
163.40000000000001
 31
0.0
  0
LINE
  5
235
  8
SOKUMEN0
  6
CONTINUOUS
 62
     3
 10
355.14999999999992
 20
164.29513
 30
0.0
 11
352.64999999999992
 21
163.40000000000001
 31
0.0
  0
LINE
  5
236
  8
SOKUMEN0
  6
CONTINUOUS
 62
     3
 10
372.25
 20
148.5
 30
0.0
 11
372.75
 21
148.5
 31
0.0
  0
LINE
  5
237
  8
SOKUMEN0
  6
CONTINUOUS
 62
     3
 10
378.25
 20
148.5
 30
0.0
 11
378.75
 21
148.5
 31
0.0
  0
LINE
  5
238
  8
SOKUMEN0
  6
CONTINUOUS
 62
     3
 10
421.25
 20
148.5
 30
0.0
 11
421.25
 21
146.80000000000001
 31
0.0
  0
LINE
  5
239
  8
SOKUMEN0
  6
CONTINUOUS
 62
     3
 10
427.74999999999989
 20
148.5
 30
0.0
 11
427.74999999999989
 21
146.80000000000001
 31
0.0
  0
LINE
  5
23A
  8
SOKUMEN0
  6
CONTINUOUS
 62
     3
 10
427.24999999999989
 20
148.0
 30
0.0
 11
421.75
 21
148.0
 31
0.0
  0
LINE
  5
23B
  8
SOKUMEN0
  6
CONTINUOUS
 62
     3
 10
421.75
 20
148.5
 30
0.0
 11
421.75
 21
146.80000000000001
 31
0.0
  0
LINE
  5
23C
  8
SOKUMEN0
  6
CONTINUOUS
 62
     3
 10
427.24999999999989
 20
148.5
 30
0.0
 11
427.24999999999989
 21
146.80000000000001
 31
0.0
  0
LINE
  5
23D
  8
SOKUMEN0
  6
CONTINUOUS
 62
     3
 10
427.74999999999989
 20
148.5
 30
0.0
 11
427.24999999999989
 21
148.5
 31
0.0
  0
LINE
  5
23E
  8
SOKUMEN0
  6
CONTINUOUS
 62
     3
 10
421.75
 20
148.5
 30
0.0
 11
421.25
 21
148.5
 31
0.0
  0
LINE
  5
23F
  8
SOKUMEN0
  6
CONTINUOUS
 62
     3
 10
444.55000000000001
 20
151.80000000000001
 30
0.0
 11
444.55000000000001
 21
153.19999999999999
 31
0.0
  0
LINE
  5
240
  8
SOKUMEN0
  6
CONTINUOUS
 62
     3
 10
444.55000000000001
 20
172.0
 30
0.0
 11
444.55000000000001
 21
173.39999999999989
 31
0.0
  0
LINE
  5
241
  8
SOKUMEN0
  6
CONTINUOUS
 62
     3
 10
444.85000000000002
 20
149.5
 30
0.0
 11
444.85000000000002
 21
151.80000000000001
 31
0.0
  0
LINE
  5
242
  8
SOKUMEN0
  6
CONTINUOUS
 62
     3
 10
444.85000000000002
 20
153.19999999999999
 30
0.0
 11
444.55000000000001
 21
153.19999999999999
 31
0.0
  0
LINE
  5
243
  8
SOKUMEN0
  6
CONTINUOUS
 62
     3
 10
444.85000000000002
 20
151.80000000000001
 30
0.0
 11
444.55000000000001
 21
151.80000000000001
 31
0.0
  0
LINE
  5
244
  8
SOKUMEN0
  6
CONTINUOUS
 62
     3
 10
444.85000000000002
 20
173.39999999999989
 30
0.0
 11
444.55000000000001
 21
173.39999999999989
 31
0.0
  0
LINE
  5
245
  8
SOKUMEN0
  6
CONTINUOUS
 62
     3
 10
444.85000000000002
 20
172.0
 30
0.0
 11
444.55000000000001
 21
172.0
 31
0.0
  0
LINE
  5
246
  8
SOKUMEN0
  6
CONTINUOUS
 62
     3
 10
444.85000000000002
 20
153.19999999999999
 30
0.0
 11
444.85000000000002
 21
172.0
 31
0.0
  0
LINE
  5
247
  8
SOKUMEN0
  6
CONTINUOUS
 62
     3
 10
444.85000000000002
 20
173.39999999999989
 30
0.0
 11
444.85000000000002
 21
175.0
 31
0.0
  0
LINE
  5
248
  8
SOKUMEN0
  6
CONTINUOUS
 62
     3
 10
355.44999999999987
 20
172.0
 30
0.0
 11
355.44999999999987
 21
173.39999999999989
 31
0.0
  0
LINE
  5
249
  8
SOKUMEN0
  6
CONTINUOUS
 62
     3
 10
355.14999999999992
 20
173.39999999999989
 30
0.0
 11
355.44999999999987
 21
173.39999999999989
 31
0.0
  0
LINE
  5
24A
  8
SOKUMEN0
  6
CONTINUOUS
 62
     3
 10
355.14999999999992
 20
172.0
 30
0.0
 11
355.44999999999987
 21
172.0
 31
0.0
  0
LINE
  5
24B
  8
SOKUMEN0
  6
CONTINUOUS
 62
     3
 10
355.44999999999987
 20
151.80000000000001
 30
0.0
 11
355.44999999999987
 21
153.19999999999999
 31
0.0
  0
LINE
  5
24C
  8
SOKUMEN0
  6
CONTINUOUS
 62
     3
 10
355.14999999999992
 20
153.19999999999999
 30
0.0
 11
355.44999999999987
 21
153.19999999999999
 31
0.0
  0
LINE
  5
24D
  8
SOKUMEN0
  6
CONTINUOUS
 62
     3
 10
355.14999999999992
 20
151.80000000000001
 30
0.0
 11
355.44999999999987
 21
151.80000000000001
 31
0.0
  0
LINE
  5
24E
  8
SOKUMEN0
  6
CONTINUOUS
 62
     3
 10
355.14999999999992
 20
149.5
 30
0.0
 11
355.14999999999992
 21
151.80000000000001
 31
0.0
  0
LINE
  5
24F
  8
SOKUMEN0
  6
CONTINUOUS
 62
     3
 10
355.14999999999992
 20
153.19999999999999
 30
0.0
 11
355.14999999999992
 21
172.0
 31
0.0
  0
LINE
  5
250
  8
SOKUMEN0
  6
CONTINUOUS
 62
     3
 10
355.14999999999992
 20
173.39999999999989
 30
0.0
 11
355.14999999999992
 21
175.0
 31
0.0
  0
LINE
  5
251
  8
SOKUMEN1
  6
CONTINUOUS
 62
     3
 10
431.85000000000002
 20
176.0
 30
0.0
 11
432.35000000000002
 21
175.5
 31
0.0
  0
LINE
  5
252
  8
SOKUMEN1
  6
CONTINUOUS
 62
     3
 10
368.14999999999992
 20
176.0
 30
0.0
 11
367.64999999999992
 21
175.5
 31
0.0
  0
LINE
  5
253
  8
SOKUMEN1
  6
CONTINUOUS
 62
     3
 10
368.14999999999992
 20
176.0
 30
0.0
 11
431.85000000000002
 21
176.0
 31
0.0
  0
LINE
  5
254
  8
SOKUMEN1
  6
CONTINUOUS
 62
     3
 10
432.35000000000002
 20
149.5
 30
0.0
 11
432.35000000000002
 21
175.5
 31
0.0
  0
LINE
  5
255
  8
SOKUMEN1
  6
CONTINUOUS
 62
     3
 10
367.64999999999992
 20
149.5
 30
0.0
 11
367.64999999999992
 21
175.5
 31
0.0
  0
LINE
  5
256
  8
SOKUMEN1
  6
CENTER
 10
382.5
 20
158.0549539999999
 30
0.0
 11
382.5
 21
177.947562
 31
0.0
  0
LINE
  5
257
  8
SOKUMEN0
  6
DASHED
 10
379.49999999999989
 20
164.0
 30
0.0
 11
379.49999999999989
 21
175.65000000000001
 31
0.0
  0
LINE
  5
258
  8
SOKUMEN0
  6
DASHED
 10
385.5
 20
164.0
 30
0.0
 11
385.5
 21
175.65000000000001
 31
0.0
  0
LINE
  5
259
  8
SOKUMEN0
  6
DASHED
 10
385.5
 20
164.0
 30
0.0
 11
379.49999999999989
 21
164.0
 31
0.0
  0
LINE
  5
25A
  8
SOKUMEN0
  6
CONTINUOUS
 62
     3
 10
443.35000000000002
 20
175.0
 30
0.0
 11
432.35000000000002
 21
175.5
 31
0.0
  0
LINE
  5
25B
  8
SOKUMEN0
  6
CONTINUOUS
 62
     3
 10
367.64999999999992
 20
175.5
 30
0.0
 11
356.64999999999998
 21
175.0
 31
0.0
  0
ARC
  5
25C
  8
SOKUMEN0
  6
CONTINUOUS
 62
     3
 10
359.75
 20
172.576247
 30
0.0
 40
6.0
 50
164.5572839999999
 51
195.44271599999999
  0
LINE
  5
25D
  8
SOKUMEN0
  6
CONTINUOUS
 62
     3
 10
354.66800999999992
 20
174.75783100000001
 30
0.0
 11
355.14999999999992
 21
174.80000000000001
 31
0.0
  0
LINE
  5
25E
  8
SOKUMEN0
  6
CONTINUOUS
 62
     3
 10
354.66800999999992
 20
170.39466200000001
 30
0.0
 11
355.14999999999992
 21
170.3524929999999
 31
0.0
  0
ARC
  5
25F
  8
SOKUMEN0
  6
CONTINUOUS
 62
     3
 10
354.73773499999999
 20
173.96087600000001
 30
0.0
 40
0.8
 50
95.0
 51
164.5572839999999
  0
ARC
  5
260
  8
SOKUMEN0
  6
CONTINUOUS
 62
     3
 10
354.73773499999999
 20
171.19161800000001
 30
0.0
 40
0.8
 50
195.44271599999999
 51
265.0
  0
ARC
  5
261
  8
SOKUMEN0
  6
CONTINUOUS
 62
     3
 10
359.75
 20
152.503333
 30
0.0
 40
6.0
 50
164.5572839999999
 51
195.44271599999999
  0
LINE
  5
262
  8
SOKUMEN0
  6
CONTINUOUS
 62
     3
 10
354.66800999999992
 20
154.6849179999999
 30
0.0
 11
355.14999999999992
 21
154.72708600000001
 31
0.0
  0
LINE
  5
263
  8
SOKUMEN0
  6
CONTINUOUS
 62
     3
 10
354.66800999999992
 20
150.3217479999999
 30
0.0
 11
355.14999999999992
 21
150.27958000000001
 31
0.0
  0
ARC
  5
264
  8
SOKUMEN0
  6
CONTINUOUS
 62
     3
 10
354.73773499999999
 20
153.88796199999999
 30
0.0
 40
0.8
 50
95.0
 51
164.5572839999999
  0
ARC
  5
265
  8
SOKUMEN0
  6
CONTINUOUS
 62
     3
 10
354.73773499999999
 20
151.11870400000001
 30
0.0
 40
0.8
 50
195.44271599999999
 51
265.0
  0
ARC
  5
266
  8
SOKUMEN0
  6
CONTINUOUS
 62
     3
 10
440.24999999999989
 20
172.576247
 30
0.0
 40
6.0
 50
344.55728399999998
 51
15.442716000000001
  0
LINE
  5
267
  8
SOKUMEN0
  6
CONTINUOUS
 62
     3
 10
445.33199000000002
 20
170.39466200000001
 30
0.0
 11
444.85000000000002
 21
170.3524929999999
 31
0.0
  0
LINE
  5
268
  8
SOKUMEN0
  6
CONTINUOUS
 62
     3
 10
445.33199000000002
 20
174.75783100000001
 30
0.0
 11
444.85000000000002
 21
174.80000000000001
 31
0.0
  0
ARC
  5
269
  8
SOKUMEN0
  6
CONTINUOUS
 62
     3
 10
445.26226500000001
 20
171.19161800000001
 30
0.0
 40
0.8
 50
275.0
 51
344.55728399999998
  0
ARC
  5
26A
  8
SOKUMEN0
  6
CONTINUOUS
 62
     3
 10
445.26226500000001
 20
173.96087600000001
 30
0.0
 40
0.8
 50
15.442716000000001
 51
85.0
  0
ARC
  5
26B
  8
SOKUMEN0
  6
CONTINUOUS
 62
     3
 10
440.24999999999989
 20
152.503333
 30
0.0
 40
6.0
 50
344.55728399999998
 51
15.442716000000001
  0
LINE
  5
26C
  8
SOKUMEN0
  6
CONTINUOUS
 62
     3
 10
445.33199000000002
 20
150.3217479999999
 30
0.0
 11
444.85000000000002
 21
150.27958000000001
 31
0.0
  0
LINE
  5
26D
  8
SOKUMEN0
  6
CONTINUOUS
 62
     3
 10
445.33199000000002
 20
154.6849179999999
 30
0.0
 11
444.85000000000002
 21
154.72708600000001
 31
0.0
  0
ARC
  5
26E
  8
SOKUMEN0
  6
CONTINUOUS
 62
     3
 10
445.26226500000001
 20
151.11870400000001
 30
0.0
 40
0.8
 50
275.0
 51
344.55728399999998
  0
ARC
  5
26F
  8
SOKUMEN0
  6
CONTINUOUS
 62
     3
 10
445.26226500000001
 20
153.88796199999999
 30
0.0
 40
0.8
 50
15.442716000000001
 51
85.0
  0
LINE
  5
270
  8
SOKUMEN1
  6
DASHED
 10
306.49999999999989
 20
140.5
 30
0.0
 11
306.0
 21
140.0
 31
0.0
  0
LINE
  5
271
  8
SOKUMEN1
  6
DASHED
 10
313.5
 20
140.5
 30
0.0
 11
314.0
 21
140.0
 31
0.0
  0
LINE
  5
272
  8
SOKUMEN0
  6
DASHED
 10
306.49999999999989
 20
140.5
 30
0.0
 11
313.5
 21
140.5
 31
0.0
  0
LINE
  5
273
  8
SOKUMEN1
  6
DASHED
 10
366.5
 20
140.5
 30
0.0
 11
366.5
 21
146.80000000000001
 31
0.0
  0
LINE
  5
274
  8
SOKUMEN1
  6
DASHED
 10
373.49999999999989
 20
146.80000000000001
 30
0.0
 11
373.49999999999989
 21
140.5
 31
0.0
  0
LINE
  5
275
  8
SOKUMEN1
  6
CENTER
 10
370.0
 20
148.161373
 30
0.0
 11
370.0
 21
137.219829
 31
0.0
  0
LINE
  5
276
  8
SOKUMEN1
  6
DASHED
 10
366.5
 20
140.5
 30
0.0
 11
366.0
 21
140.0
 31
0.0
  0
LINE
  5
277
  8
SOKUMEN1
  6
DASHED
 10
373.49999999999989
 20
140.5
 30
0.0
 11
374.0
 21
140.0
 31
0.0
  0
LINE
  5
278
  8
SOKUMEN0
  6
DASHED
 10
366.5
 20
140.5
 30
0.0
 11
373.49999999999989
 21
140.5
 31
0.0
  0
LINE
  5
279
  8
SOKUMEN1
  6
DASHED
 10
426.49999999999989
 20
140.5
 30
0.0
 11
426.49999999999989
 21
146.80000000000001
 31
0.0
  0
LINE
  5
27A
  8
SOKUMEN1
  6
DASHED
 10
433.49999999999989
 20
146.80000000000001
 30
0.0
 11
433.49999999999989
 21
140.5
 31
0.0
  0
LINE
  5
27B
  8
SOKUMEN1
  6
CENTER
 10
430.0
 20
148.01754799999989
 30
0.0
 11
430.0
 21
137.219829
 31
0.0
  0
LINE
  5
27C
  8
SOKUMEN1
  6
DASHED
 10
426.49999999999989
 20
140.5
 30
0.0
 11
426.0
 21
140.0
 31
0.0
  0
LINE
  5
27D
  8
SOKUMEN1
  6
DASHED
 10
433.49999999999989
 20
140.5
 30
0.0
 11
434.0
 21
140.0
 31
0.0
  0
LINE
  5
27E
  8
SOKUMEN0
  6
DASHED
 10
426.49999999999989
 20
140.5
 30
0.0
 11
433.49999999999989
 21
140.5
 31
0.0
  0
LINE
  5
27F
  8
SOKUMEN1
  6
DASHED
 10
486.5
 20
140.5
 30
0.0
 11
486.5
 21
153.0
 31
0.0
  0
LINE
  5
280
  8
SOKUMEN1
  6
DASHED
 10
493.5
 20
153.0
 30
0.0
 11
493.5
 21
140.5
 31
0.0
  0
LINE
  5
281
  8
SOKUMEN1
  6
DASHED
 10
495.5
 20
153.0
 30
0.0
 11
495.5
 21
162.0
 31
0.0
  0
LINE
  5
282
  8
SOKUMEN1
  6
DASHED
 10
484.49999999999989
 20
153.0
 30
0.0
 11
495.5
 21
153.0
 31
0.0
  0
LINE
  5
283
  8
SOKUMEN1
  6
DASHED
 10
484.49999999999989
 20
162.0
 30
0.0
 11
484.49999999999989
 21
153.0
 31
0.0
  0
LINE
  5
284
  8
SOKUMEN1
  6
CENTER
 10
490.0
 20
164.71788099999989
 30
0.0
 11
490.0
 21
136.98277999999991
 31
0.0
  0
LINE
  5
285
  8
SOKUMEN1
  6
DASHED
 10
486.5
 20
140.5
 30
0.0
 11
486.0
 21
140.0
 31
0.0
  0
LINE
  5
286
  8
SOKUMEN1
  6
DASHED
 10
493.5
 20
140.5
 30
0.0
 11
494.0
 21
140.0
 31
0.0
  0
LINE
  5
287
  8
SOKUMEN0
  6
DASHED
 10
486.5
 20
140.5
 30
0.0
 11
493.5
 21
140.5
 31
0.0
  0
LINE
  5
288
  8
SOKUMEN0
  6
DASHED
 10
379.94999999999999
 20
175.1999999999999
 30
0.0
 11
385.05000000000001
 21
175.1999999999999
 31
0.0
  0
LINE
  5
289
  8
SOKUMEN0
  6
DASHED
 10
385.05000000000001
 20
161.0
 30
0.0
 11
379.94999999999999
 21
161.0
 31
0.0
  0
LINE
  5
28A
  8
SOKUMEN0
  6
DASHED
 10
385.05000000000001
 20
161.0
 30
0.0
 11
385.05000000000001
 21
175.1999999999999
 31
0.0
  0
LINE
  5
28B
  8
SOKUMEN0
  6
DASHED
 10
379.94999999999999
 20
161.0
 30
0.0
 11
379.94999999999999
 21
175.1999999999999
 31
0.0
  0
LINE
  5
28C
  8
SOKUMEN0
  6
DASHED
 10
385.05000000000001
 20
175.1999999999999
 30
0.0
 11
385.85000000000002
 21
176.0
 31
0.0
  0
LINE
  5
28D
  8
SOKUMEN0
  6
DASHED
 10
379.14999999999992
 20
176.0
 30
0.0
 11
379.94999999999999
 21
175.1999999999999
 31
0.0
  0
LINE
  5
28E
  8
SOKUMEN0
  6
DASHED
 10
385.05000000000001
 20
161.0
 30
0.0
 11
382.5
 21
159.52775700000001
 31
0.0
  0
LINE
  5
28F
  8
SOKUMEN0
  6
DASHED
 10
379.94999999999999
 20
161.0
 30
0.0
 11
382.5
 21
159.52775700000001
 31
0.0
  0
LINE
  5
290
  8
SOKUMEN1
  6
CENTER
 10
417.49999999999989
 20
158.0549539999999
 30
0.0
 11
417.49999999999989
 21
177.947562
 31
0.0
  0
LINE
  5
291
  8
SOKUMEN0
  6
DASHED
 10
420.5
 20
164.0
 30
0.0
 11
420.5
 21
175.65000000000001
 31
0.0
  0
LINE
  5
292
  8
SOKUMEN0
  6
DASHED
 10
414.5
 20
164.0
 30
0.0
 11
414.5
 21
175.65000000000001
 31
0.0
  0
LINE
  5
293
  8
SOKUMEN0
  6
DASHED
 10
414.5
 20
164.0
 30
0.0
 11
420.5
 21
164.0
 31
0.0
  0
LINE
  5
294
  8
SOKUMEN0
  6
DASHED
 10
420.0499999999999
 20
175.1999999999999
 30
0.0
 11
414.94999999999987
 21
175.1999999999999
 31
0.0
  0
LINE
  5
295
  8
SOKUMEN0
  6
DASHED
 10
414.94999999999987
 20
161.0
 30
0.0
 11
420.0499999999999
 21
161.0
 31
0.0
  0
LINE
  5
296
  8
SOKUMEN0
  6
DASHED
 10
414.94999999999987
 20
161.0
 30
0.0
 11
414.94999999999987
 21
175.1999999999999
 31
0.0
  0
LINE
  5
297
  8
SOKUMEN0
  6
DASHED
 10
420.0499999999999
 20
161.0
 30
0.0
 11
420.0499999999999
 21
175.1999999999999
 31
0.0
  0
LINE
  5
298
  8
SOKUMEN0
  6
DASHED
 10
414.94999999999987
 20
175.1999999999999
 30
0.0
 11
414.14999999999992
 21
176.0
 31
0.0
  0
LINE
  5
299
  8
SOKUMEN0
  6
DASHED
 10
420.84999999999991
 20
176.0
 30
0.0
 11
420.0499999999999
 21
175.1999999999999
 31
0.0
  0
LINE
  5
29A
  8
SOKUMEN0
  6
DASHED
 10
414.94999999999987
 20
161.0
 30
0.0
 11
417.49999999999989
 21
159.52775700000001
 31
0.0
  0
LINE
  5
29B
  8
SOKUMEN0
  6
DASHED
 10
420.0499999999999
 20
161.0
 30
0.0
 11
417.49999999999989
 21
159.52775700000001
 31
0.0
  0
ENDSEC
  0
EOF
